<svg xmlns="http://www.w3.org/2000/svg" width="1400" height="1400" viewBox="0 0 1400 1400"><g id="レイヤー_2" data-name="レイヤー 2"><path d="M999.9,691c26.2-11.7,58.5-13.3,89.6-1.9,58.1,21.3,90.1,79.8,71.6,130.4-14,38-52.6,60.9-95.6,60.9a125.5,125.5,0,0,1-43.3-7.8c-25.6-9.4-46.1-26.1-59.5-46.1l7.1-2.6c11.8,18.3,33.6,27.3,57.1,35.9,51,18.8,105.4-1.4,121.4-45s-12.4-94.2-63.4-112.9a111.4,111.4,0,0,0-38.8-7,98.4,98.4,0,0,0-45.2,10.6" fill="#231815"/><path d="M339.6,781.8a122.9,122.9,0,0,1-56.3,41.5,125.5,125.5,0,0,1-43.3,7.8c-43,0-81.6-22.9-95.6-60.9h0c-18.5-50.6,13.5-109,71.5-130.3,23.7-8.7,48.1-9.9,69.9-4.8l-3.9,7.7c-16.2-3.4-39-.5-60.8,7.5-51,18.8-79.9,71.7-63.9,115.2h0c16,43.6,70.4,63.8,121.4,45.1,21.9-8.1,39.6-21.9,51.4-38.6" fill="#231815"/><path d="M242.4,717.3a7,7,0,0,1-6.5-4.7L118.7,358.2a6.7,6.7,0,0,1,4.3-8.5c3.6-1.2,14.5-3.4,15.6.2L248.8,708.4a6.7,6.7,0,0,1-4.3,8.5A5.2,5.2,0,0,1,242.4,717.3Z" fill="#231815"/><path d="M199.8,481,305,375.1l-147-16c-3.7-.5-9.3-14.6-5.6-14l167.9,18.5a7,7,0,0,1,5.5,4.6,6.8,6.8,0,0,1-1.7,6.9L209.4,490.5C208.1,491.9,197.2,483.6,199.8,481Z" fill="#231815"/><path d="M1057.8,753.3a4.4,4.4,0,0,1-1.6-.2,6.7,6.7,0,0,1-5-8.1l85.2-353.7a6.8,6.8,0,0,1,8.2-5c3.6.8,10.6,4.3,9.7,8l-89.9,353.8A6.9,6.9,0,0,1,1057.8,753.3Z" fill="#231815"/><path d="M1139.6,551.4a6.7,6.7,0,0,1-6.5-5.2,6.8,6.8,0,0,1,4.9-8.2l145-35.3-116-91.4c-2.9-2.4,2.1-19.3,5-16.9l130.1,106.5a6.8,6.8,0,0,1,2.3,6.7,7,7,0,0,1-5,5.1l-158.1,38.5Z" fill="#231815"/><path d="M670.7,951.4c-143.6,0-280.5-72-329.7-153.5-84.1-139.3-65.1-280.6,61.5-458.1,62.8-88.1,125.9-141.2,193.1-162.3,54.7-17.2,112.3-14.2,186.8,9.6C870.7,215.4,942.9,314,969.8,393.2c9.2,27.2,31.2,79,37.4,130.7,3.5,28.4,6.6,54.3,7.5,109.6,1,57.4-11.7,186.6-154.9,269.2C800.3,937,734.8,951.4,670.7,951.4ZM672,184.1c-84.2,0-169.2,38.3-258.5,163.5-30.6,43-50.5,89.6-68.2,128.6-53.7,117.7-53.4,214.1,7.3,314.7,47.3,78.3,178.9,147.3,317.1,147.3,62.2,0,125.6-13.9,183.3-47.3,136.9-79,144-187.3,149.3-266.5.1-2.4-1.1-55.6-10.1-108-8-46.9-23.3-92.5-29.9-112-22.4-66-89.5-168.4-181.7-197.9C742.8,194.4,707.9,184.1,672,184.1Z" fill="#231815"/><path d="M802.6,551.7a90.4,90.4,0,0,0,13.6-24.9c9.2-24.7,9.2-53.6.1-81.2-18.9-57.6-72.1-92-118.6-76.7-22.8,7.5-40.5,25.5-49.8,50.8s-9.2,53.7-.1,81.3c13.8,42.1,46.1,71.9,80.6,78.8m-67.7-83.1c-8.2-24.7-8.2-50.4-.1-72.3s22.6-36.5,41.4-42.6a56.6,56.6,0,0,1,18.6-3c34.2,0,68.8,28.4,82.8,71,8.2,24.7,8.2,50.4.1,72.3-4.9,13.3-12.4,24.2-21.9,32a86.3,86.3,0,0,0-12.5,3.4,163.9,163.9,0,0,0-24,10.2C710.5,568.6,674.9,540.1,660.7,496.7Z" fill="#231815"/><path d="M651.6,766.6c-11.6,0-18-5.4-21.3-10.2-12.8-18.3,2.2-53.4,7.1-63.8a11.6,11.6,0,0,1,15.3-5.5c5.8,2.8.5,7.6-2.2,13.3-8.5,18-6.4,39.6-.9,45.4s42.6.2,44.9-2.8,7-17.8-6.9-52.3c-2.4-5.9,2.4-12.4,8.5-13.9a11.5,11.5,0,0,1,13.9,8.5c8.9,37,8.7,56.9-.8,68.9S685.2,766,671,766c-5.1,0-10.5,0-15.8.5Z" fill="#231815"/><path d="M604.9,148c-25.4-.7-43.5-6.3-53.8-23.5S542,77.8,574.5,58.1C596,45,640.7,39.2,682.3,57.7c16.4,7.3,17.2,10.4,18.6,12.5s1.6,8-2.5,10.8-5.6,1.7-8,1.2c-6-1.3-9.2-7.3-15.7-10.9C647,55.8,610,48.8,577.4,70c-17.7,11.6-19.6,31.9-11.3,45.7,18.1,30.1,82.6,12.8,110.4-3.7a6.9,6.9,0,1,1,7,11.9C664.3,135.3,630.4,147,604.9,148Z" fill="#231815"/><path d="M629.3,203.8s-9.2-16.3,12.8-48.7c20.7-30.5,39.7-41.6,39.7-41.6s-41.1-3.4-48.8-1.7c-10.3,2.1-16.2,1.8-18.7-3.5-3.4-7.2,4.7-18.1,23.2-14,14.7,2.2,65.9,6.3,71,11.2,2.7,2.6,2.2,6.9-1.5,11.6s-7.8-2.8-14.7,1.8-30.6,20.9-42.1,37.5c-21.1,30.2-8.1,49.3-8.1,49.3C637.1,208.8,629.6,207.6,629.3,203.8Z" fill="#231815"/><path d="M729.7,209.3c-9-23.3-22.2-77,26.2-117.9,30.3-25.5,86.3-20.1,113.6,7.4,11.2,11.3,24,32.1,7.4,51.2s-42.5,13.1-52.8,10.7c-29.6-6.8-35.3-23.2-34.7-40.9.2-4.5-2.7-9.4-7.1-10.8-7.4-2.3-14.4,1.7-14.9,11.6-1.3,23.1,11.2,42.9,51.8,53.6,28.8,7.7,52.4,2.8,69-16.3,18.9-21.7,14.2-48.9-9.6-70.5C844,56.2,785.7,48.9,748.5,80.6c-46.9,40-38,101.4-30.9,128.8,0,0,2.2,6,12.5,1.3" fill="#231815"/><path d="M733.9,590.3a6.8,6.8,0,0,1-5.1-11.2c1-1.2,10.5-11.4,40.3-21.6s55-4.2,56.1-4a6.8,6.8,0,0,1,5.2,8.1,6.8,6.8,0,0,1-8.1,5.2c-.2-.1-24.3-7-49.2,1.6S739,588,738.9,588.1A7,7,0,0,1,733.9,590.3Z" fill="#231815"/><path d="M540.3,572.1a6.6,6.6,0,0,1-4.2-1.5c-.2-.2-14.3-15.2-36.8-18.1s-35.6,2.6-35.7,2.7a6.8,6.8,0,0,1-5-12.6c1.2-.5,12.8-4.8,40.2-1.3s45,18.1,45.8,18.7a6.8,6.8,0,0,1,1,9.5A6.7,6.7,0,0,1,540.3,572.1Z" fill="#231815"/><ellipse cx="647.6" cy="208.8" rx="7.1" ry="2.7" fill="#231815"/><ellipse cx="679.2" cy="211.7" rx="7.6" ry="2.7" fill="#231815"/><ellipse cx="669.8" cy="202.5" rx="7.6" ry="2.7" fill="#231815"/><ellipse cx="687.8" cy="196.5" rx="7.6" ry="2.7" fill="#231815"/><ellipse cx="656.8" cy="194.4" rx="7.6" ry="2.7" fill="#231815"/><ellipse cx="610.8" cy="215.4" rx="7.6" ry="2.7" fill="#231815"/><ellipse cx="594.1" cy="206.6" rx="7.6" ry="2.7" fill="#231815"/><ellipse cx="607.9" cy="198.7" rx="7.6" ry="2.7" fill="#231815"/><ellipse cx="634.3" cy="217.9" rx="7.6" ry="2.7" fill="#231815"/><ellipse cx="661.7" cy="220.9" rx="7.6" ry="2.7" fill="#231815"/><ellipse cx="691.2" cy="224.3" rx="7.6" ry="2.7" fill="#231815"/><ellipse cx="713.6" cy="225.3" rx="7.6" ry="2.7" fill="#231815"/><ellipse cx="694" cy="217.3" rx="5.5" ry="2" fill="#231815"/><ellipse cx="660.6" cy="210.7" rx="5.5" ry="2" fill="#231815"/><ellipse cx="676.2" cy="218.5" rx="5.5" ry="2" fill="#231815"/><ellipse cx="591.1" cy="214.1" rx="5.5" ry="2" fill="#231815"/><ellipse cx="575.3" cy="208.9" rx="5.5" ry="2" fill="#231815"/><ellipse cx="590.9" cy="199.4" rx="5.5" ry="2" fill="#231815"/><ellipse cx="735.8" cy="202.9" rx="5.5" ry="2" fill="#231815"/><ellipse cx="692.4" cy="186.9" rx="5.5" ry="2" fill="#231815"/><ellipse cx="654.3" cy="202.2" rx="5.5" ry="2" fill="#231815"/><ellipse cx="626.2" cy="196.6" rx="5.5" ry="2" fill="#231815"/><ellipse cx="624.3" cy="210.7" rx="5.5" ry="2" fill="#231815"/><ellipse cx="612.3" cy="205.6" rx="5.5" ry="2" fill="#231815"/><ellipse cx="712.4" cy="212.6" rx="5.5" ry="2" fill="#231815"/><ellipse cx="707.1" cy="219.1" rx="5.5" ry="2" fill="#231815"/><ellipse cx="685.9" cy="203.5" rx="5.5" ry="2" fill="#231815"/><ellipse cx="699.2" cy="202.5" rx="5.5" ry="2" fill="#231815"/><ellipse cx="712.6" cy="205.3" rx="5.5" ry="2" fill="#231815"/><ellipse cx="742.3" cy="197.4" rx="5.5" ry="2" fill="#231815"/><ellipse cx="650.6" cy="215.2" rx="5.5" ry="2" fill="#231815"/><ellipse cx="622.1" cy="225.5" rx="5.5" ry="2" fill="#231815"/><ellipse cx="606" cy="223" rx="5.5" ry="2" fill="#231815"/><ellipse cx="642.7" cy="227.3" rx="5.5" ry="2" fill="#231815"/><ellipse cx="658" cy="228.5" rx="5.5" ry="2" fill="#231815"/><ellipse cx="672.2" cy="233.3" rx="5.5" ry="2" fill="#231815"/><ellipse cx="579" cy="219" rx="5.5" ry="2" fill="#231815"/><ellipse cx="702.5" cy="234.2" rx="5.5" ry="2" fill="#231815"/><ellipse cx="733" cy="229.8" rx="5.5" ry="2" fill="#231815"/><ellipse cx="759.9" cy="223.2" rx="5.5" ry="2" fill="#231815"/><ellipse cx="786" cy="216.9" rx="5.5" ry="2" fill="#231815"/><ellipse cx="792.5" cy="211.5" rx="5.5" ry="2" fill="#231815"/><ellipse cx="803.3" cy="218.5" rx="5.5" ry="2" fill="#231815"/><ellipse cx="560.3" cy="211.4" rx="5.5" ry="2" fill="#231815"/><ellipse cx="777.3" cy="223.1" rx="5.5" ry="2" fill="#231815"/><ellipse cx="671.2" cy="196.1" rx="5.5" ry="2" fill="#231815"/><ellipse cx="724.9" cy="217.8" rx="7.6" ry="2.7" fill="#231815"/><ellipse cx="711.8" cy="198.2" rx="7.6" ry="2.7" fill="#231815"/><ellipse cx="724.2" cy="196.1" rx="7.6" ry="2.7" fill="#231815"/><ellipse cx="751.1" cy="204.2" rx="7.6" ry="2.7" fill="#231815"/><ellipse cx="745.1" cy="211.5" rx="7.6" ry="2.7" fill="#231815"/><ellipse cx="763.9" cy="216" rx="7.6" ry="2.7" fill="#231815"/><ellipse cx="772.6" cy="208.2" rx="7.6" ry="2.7" fill="#231815"/><ellipse cx="743.7" cy="221.6" rx="6.4" ry="2.3" fill="#231815"/><ellipse cx="696.6" cy="209.2" rx="7.6" ry="2.7" fill="#231815"/><ellipse cx="675.3" cy="188.8" rx="7.6" ry="2.7" fill="#231815"/><ellipse cx="638.2" cy="199.8" rx="7.6" ry="2.7" fill="#231815"/><ellipse cx="640.8" cy="189.6" rx="7.6" ry="2.7" fill="#231815"/><ellipse cx="617.3" cy="189.8" rx="7.6" ry="2.7" fill="#231815"/><ellipse cx="703" cy="191.3" rx="7.6" ry="2.7" fill="#231815"/><ellipse cx="659.4" cy="183.3" rx="7.6" ry="2.7" fill="#231815"/><path d="M568.4,545.8a67.9,67.9,0,0,1-31.1,9.3,97.9,97.9,0,0,0-38.5-13.8l-2.4-.3a77.2,77.2,0,0,1-19.6-25.6c-10.2-21-12.8-46.6-7.1-72s18.7-47.5,36.8-62.2c13.8-11.2,29.2-17,44.5-17a62.9,62.9,0,0,1,12.9,1.4c19.3,4.3,35.4,17.9,45.4,38.4s12.7,46.5,7.1,72a118.1,118.1,0,0,1-18.5,42.3c3.4-.4,6-.5,6.7,0s3.6,2,7.1,3.7a134.1,134.1,0,0,0,17.9-43.1c6.3-28.4,3.4-57.1-8.1-80.8s-31.3-40.5-54.7-45.7S519,353.7,498,370.7s-35.3,41.4-41.6,69.8-3.4,57.1,8.2,80.8a92.4,92.4,0,0,0,11.9,18.6l70,27.9a83.8,83.8,0,0,0,23.8-7.7C569.6,555.4,568.9,550.5,568.4,545.8Z" fill="#231815"/><path d="M581.2,597.4c-3.2-2.6-32-26-30.2-51.8.6-8.3,4.7-20.2,20.9-29.5,48.1-27.8,98.1,44.7,100.2,47.8A11.5,11.5,0,1,1,653,576.8c-.6-.8-37.4-65-66.6-48.2-8.9,5.1-14.4,18.6-14.5,20.1-.8,10.8,15.4,29.5,23.6,30.5s11.6,4.5,12.3,9.5-1.6,10.3-6,12C591,604.9,583.4,599,581.2,597.4Z" fill="#231815"/><path d="M594.8,762.7c-14.1,0-27.2-8.9-36.6-15.3l-2.9-2a23.5,23.5,0,0,1-10.7-17.2c-2.5-20.6,24.6-43,29.1-47.9s7-8.3,11.7-4a11.5,11.5,0,0,1,.7,16.3c-9.6,10.5-22.2,25.1-21.3,34.5s23.4,18.3,33.3,16.4,17.2-11.8,22.9-48.7c1-6.3,3.1-12.8,9.4-11.8a11.4,11.4,0,0,1,9.6,13.1c-5.6,36.5-15.9,56.8-32.4,64A32.9,32.9,0,0,1,594.8,762.7Z" fill="#231815"/><path d="M645.8,696.3c-97.1,0-151.8-46.6-155.1-49.5a11.6,11.6,0,0,1,15.2-17.4c3,2.7,50.5,54,138,54.2,43,0,96.6-20,157.2-48.9a11.5,11.5,0,1,1,9.9,20.8C747.2,685.9,691.8,696.3,645.8,696.3Z" fill="#231815"/><path d="M835.8,679.1H834c-17.9-2.8-30.1-13.5-34.5-30.1s-4.7-32.4-4.8-33.1a11.6,11.6,0,1,1,23.1-.5h0c0,.1-4.7,13.6-1.1,27.1,1.4,5.2,9.5,12,20.9,13.8a11.5,11.5,0,0,1-1.8,22.9Z" fill="#231815"/><path d="M470,663.7a11.6,11.6,0,0,1-4-22.4c9.6-3.6,19.2-4.3,23-9.7,6.8-9.8,2.4-24.4,2.3-26.1a11.5,11.5,0,0,1,22.8-2.8c1.9,14.9-4,46.7-40,60.2A12.4,12.4,0,0,1,470,663.7Z" fill="#231815"/><path d="M517,982.6a6.6,6.6,0,0,0,5,1.6c79.6-7,166.5-5.5,258.4,4.5a6.7,6.7,0,0,0,7.5-6.7l6.5-55.2c-4.6,1.5-14.8,2.7-19.3,4l-.6,43.6c-87.4-9.1-170.4-10.5-246.8-4.3L526,937.8c-4.7-1.6-12.9-4.2-17.5-6l6.1,46.1A7,7,0,0,0,517,982.6Z" fill="#231815"/><path d="M402.2,1002.9c18.8-4.4,38.7-8.2,59.1-11.3a7,7,0,0,0,4.5-2.8,7.3,7.3,0,0,0,1.1-5.2l-10.2-94.8c-5.4-3.1-19.1-8.6-24.1-11.9l19.6,102.4c-18,2.9-36.1,7.9-52.9,11.8-19.2-16.1-39.9-36.4-59.4-55.9-29.9-29.9-67.8-76.1-95.5-111.1a105.3,105.3,0,0,1-17.8-.6c28.2,35.9,70.7,88.3,103.7,121.3,19,19,39.7,37.4,58.6,53.3l2.5,3.8,4.7,2.6Zm302.6,245.7-3.8.5a6.9,6.9,0,0,0-4.6,3,6.5,6.5,0,0,0-.9,5.4l25.8,91.5a6.6,6.6,0,0,0,6.5,5.1c3.6.1,22.3.4,62,.4,93.5,0,226.5,2.7,272-11,40.8-12.2,67.1-33.6,67-62-.1-23.5-18.1-42.8-48.2-51.7-52.8-15.5-119.3,24.7-147.5,32.1l12.4-42.6a6.9,6.9,0,0,0-1.5-6.3,7,7,0,0,0-6.1-2.2l-29.7,4,11.2-212.5c0-.4-.2-.7-.2-1.1l6.7-4.5c51.8-34.6,99.4-84.1,133-123.4-5.3-.3-15.5-1-20.9-2-32.6,37.3-68.2,82.3-115.9,114.1l-12.7,8.5c-10-2.1-32.2-5.6-56.9-9.4l12.4-76.7c-4.1,2.5-8.2,5.1-12.5,7.5-.9.6-9.7,3.5-10.6,4.1L838,989a6.7,6.7,0,0,0,1.2,5.1,6.5,6.5,0,0,0,4.5,2.7c30.5,4.6,52.5,8.9,62,10.9l-6.3,209.1-181.2,29.8m-91.2-8.5-169.5-38.3L405.3,1030l-18.2-3.3,57,170.3-25.3-6.2a7,7,0,0,0-5.9,1.6,6.6,6.6,0,0,0-2.2,5.6l16.5,52c-26.1-8.7-141.7-48.5-185.3-28.3-15.8,7.3-26.6,19-32.2,35-6.2,17.8-5.5,33.1,2.2,45.4,17,27.2,82.5,37.3,162,46.5,97.2,11.2,265.4,5.5,267.1,5.5h.2a6.9,6.9,0,0,0,6.6-5l32-92.4a6.8,6.8,0,0,0-5.2-8.4l-17.3-4.5,4.3-39.4,37.6,7.4,7.8,21.7,8.9-2.1-3.9-26.2a6.8,6.8,0,0,0-5.3-5.6l-48.9-10a6.4,6.4,0,0,0-5.2,1,6.8,6.8,0,0,0-3,4.4l-5.6,46.1-3.2,13.2,24,5.9L636,1340.4c-29.9-.7-173.6,4.7-260.5-5.3-58.8-6.8-136.6-15.5-152.1-40.2-5.5-8.7-5.8-19.8-.9-33.7s12.6-21.4,25-27.2,24.9-7.2,39.7-5.7c49.3,5.2,144.4,37.7,145.1,37.9a6.8,6.8,0,0,0,9.2-6.8l-16.6-53.5,198.7,45.4m434.3,84c-58.2,17.5-284.6,5.8-324.8,5.3l-22.6-79.2,219.2-35.6-12.8,44.1a6.9,6.9,0,0,0,1.9,6.7,6.9,6.9,0,0,0,6.7,1.6c1-.3,89.9-53.4,151.3-35.4,24,7.1,38.4,21.6,38.4,38.8C1115.3,1303.8,1092.8,1324.9,1057.9,1335.3Z" fill="#231815"/><path d="M755.6,1110.5l2.3-82.6a6.2,6.2,0,0,1,2.6-4.8,8.5,8.5,0,0,1,6-1.9,9.3,9.3,0,0,1,6.1,2.2,5.8,5.8,0,0,1,2.4,5l-.9,33,46.4-36.8a11.6,11.6,0,0,1,6-1.8c3.7.2,6.3,1.6,7.9,4.4s1,5.3-1.6,7.3l-43,33.9s19.8,8.7,23.4,12.8,13.2,25.4,13.2,25.4c2.1,1.9,2.6,5.7,1,8.5s-4.2,4.2-7.9,4.1a9.4,9.4,0,0,1-6.1-2.3s-7.2-20.7-12.8-25.9-26.9-14.8-26.9-14.8l-1,34.8a6.3,6.3,0,0,1-2.7,4.7,9.5,9.5,0,0,1-6.2,1.8,9,9,0,0,1-5.9-2.2A5.8,5.8,0,0,1,755.6,1110.5Z" fill="#231815"/><path d="M674.4,1019.1l10.1.3c16.7,1,31.5,6.8,35.7,10.4s20,20.9,19.5,39.4c-.3,12.9-4.8,22.3-14.1,30.7s-25.9,13.4-43.7,12.9l-10.2-.3s-3.9-1.5-3.8-4l2.4-85.3C670.4,1019.6,674.4,1019.1,674.4,1019.1Zm11.4,78.5c10.8-.1,20.2-1.5,26.9-7.4s10.8-13.1,11.1-22.4-8.9-21.9-12.9-25.3-15-6.5-24.6-7.4Z" fill="#231815"/><path d="M504,1083.1q-.2,6.9,2.7,10.2c2,2.2,5.1,3.4,9.5,3.5s7.6-.8,9.6-2.9,3.1-5.4,3.3-10.1l1.7-62.7a6.5,6.5,0,0,1,2.7-4.9,9,9,0,0,1,6.1-1.8,8.9,8.9,0,0,1,6,2.2,6,6,0,0,1,2.3,5l-1.7,62.7c-.3,9.4-2.9,16.2-7.7,20.4s-12.5,6.2-22.7,5.9c-19.9-.6-29.6-9.9-29.1-28a6.1,6.1,0,0,1,2.8-4.7,9.5,9.5,0,0,1,6.2-1.9,9.8,9.8,0,0,1,5.9,2.2C503.2,1079.7,504.1,1081.3,504,1083.1Z" fill="#231815"/><path d="M617.6,1108.1l-8.7-26.6-10.3,26c-1.5,3.3-4.3,4.9-8.5,4.8h-4.5a10.5,10.5,0,0,1-5.1-1.6,6.4,6.4,0,0,1-2.8-3.6c-2.6-9.5-4.7-23.4-6.5-41.6s-2.4-32.6-2.1-43.1a6.6,6.6,0,0,1,2.7-4.9,10,10,0,0,1,6.1-1.9,9.4,9.4,0,0,1,6,2.2,6.1,6.1,0,0,1,2.3,5c-.2,7.2.1,17.5.9,31s1.8,23.6,2.9,30.3l10.6-26.2a7.1,7.1,0,0,1,3.2-3.5,10.2,10.2,0,0,1,5.1-1.3h1.5a8.6,8.6,0,0,1,5.1,1.6,7.3,7.3,0,0,1,3,3.6l9,26.8c1.6-6.7,3.1-16.7,4.7-30.1s2.4-23.7,2.6-30.9a5.9,5.9,0,0,1,2.6-4.8,8.6,8.6,0,0,1,6.1-1.9,9.2,9.2,0,0,1,6,2.2,6.6,6.6,0,0,1,2.4,5c-.3,10.5-1.8,24.8-4.6,42.9s-5.6,31.8-8.8,41.2a5.8,5.8,0,0,1-3,3.4,9.5,9.5,0,0,1-5.2,1.4l-4.4-.2C621.7,1113.2,618.9,1111.5,617.6,1108.1Z" fill="#231815"/><path d="M557.9,426c-18.8-1-34.8,13.8-35.9,33.2s13.2,35.9,32,36.9,34.8-13.8,35.8-33.2S576.6,427,557.9,426Zm17.3,50.4-11.4-11.9s1.8-4.2,12.6-12.6C587.2,462.1,575.2,476.4,575.2,476.4Z" fill="#0b0c0c"/><path d="M715.2,433.8c-18.7-1-34.8,14.4-35.9,34.5s13.2,37.3,31.9,38.4,34.8-14.5,36-34.6S734,434.8,715.2,433.8Zm22.7,42.6c-1.8,6-4.8,7.8-4.8,7.8l-12.5-6.6,14.9-14.9S739.7,470.5,737.9,476.4Z" fill="#0b0c0c"/></g></svg>