<?xml version="1.0" encoding="utf-8"?>
<!-- Generator: Adobe Illustrator 24.1.2, SVG Export Plug-In . SVG Version: 6.00 Build 0)  -->
<svg version="1.1" id="レイヤー_1" xmlns="http://www.w3.org/2000/svg" xmlns:xlink="http://www.w3.org/1999/xlink" x="0px"
	 y="0px" width="1400px" height="1400px" viewBox="0 0 1400 1400" enable-background="new 0 0 1400 1400" xml:space="preserve">
<g id="レイヤー_1_1_">
	<rect x="-0.65" y="0.7" fill="#A2CADB" width="1400.34" height="1400.34"/>
	<g>
		<path fill="#93B8CE" d="M180.77,1020.87l198.59,210.37l140.59-24.82l481.03,40.21l2.29-16.05l144.45-137.57
			c0,0-98.59-61.91-105.47-89.42l-740.59-50.44C301.67,953.15,284.58,1019.81,180.77,1020.87z"/>
		<path fill="#FBE7DD" d="M703.57,227.69c0,0-188.67-4.43-255.93,117.85s-201.77,241.51-192.6,467.74
			c9.17,226.23,272.09,351.57,409.66,345.46c137.57-6.11,415.77-58.09,434.11-272.09S1069.56,271.86,703.57,227.69z"/>
		<path fill="#D1CEBE" d="M553.88,260.7c0,0,165.09,80.25,337.05,11.46C890.93,272.17,783.17,157.53,553.88,260.7z"/>
		<path fill="#FFFFFF" d="M563.82,467.83c-4.7-1.11-85.6-9.17-99.36,45.86s-7.64,132.99,19.87,152.86l61.14,22.93h24.46l33.63-56.56
			l23.69,4.97C627.26,637.88,699.86,499.93,563.82,467.83z"/>
		<path fill="#FFFFFF" d="M702.92,499.93c0,0-35.16,30.57-18.34,90.19c16.81,59.61,42.8,100.89,107,116.17l62.67-22.93
			c0,0,25.23-29.15,30.57-65.73c3.04-20.81-9.14-48.09-14.13-63.61C856.94,511.21,794.63,470.88,702.92,499.93z"/>
		<polyline fill="#F3ED67" points="47.44,457.13 95.14,631.38 226.01,456.11 37.58,439.01 		"/>
		<polyline fill="#F3ED67" points="1186.79,509.46 1184.89,674.97 1379.89,578.75 1181.7,490.33 		"/>
		<path fill="#E08067" d="M439.24,1099.89l18.01,114.04l-77.88,17.31l0.26,40.61l64.2,210.94l236.16,50.44l13.76-66.49l64.94,12.16
			l8.43,70.39l222.41-32.1l13.76-286.61c0,0-95.68-5.27-90.26-16.39s18.39-120.05,18.39-120.05l-95.44,48.78l9.1,25.75l-2.55,45.11
			c0,0-96.04-45.11-318.45-15.31c-4.59-34.39-4.59-64.2-4.59-64.2L439.24,1099.89z"/>
		<path fill="#6A8185" d="M412.49,1496.55c0,4.59,9.17,47.39,9.17,47.39s-165.09-61.14-232.34-38.21s-35.16,94.77-35.16,94.77
			s42.8,30.57,137.57,36.69c94.77,6.11,362.27,9.17,362.27,9.17l22.93-87.13L412.49,1496.55z"/>
		<path fill="#6A8185" d="M750.31,1542.41l255.27-39.74l-12.23,82.54l123.81-44.33c0,0,114.64-25.99,122.29,35.16
			c7.64,61.14,3.06,74.9-128.4,76.43s-328.64,3.06-333.23-1.53C773.23,1646.35,750.31,1542.41,750.31,1542.41z"/>
		<path fill="#FBE7DD" d="M246.64,790.35c0,0-123.81-22.93-165.09,61.91s49.79,210.81,209.47,96.23L246.64,790.35z"/>
		<path fill="#FBE7DD" d="M1060.61,994.42c0,0,25.22,38.98,45.86,52.74s116.94,43.56,155.91,6.88c0,0,82.54-50.44,41.27-126.11
			c-41.27-75.66-146.74-105.47-192.6-71.08C1111.05,856.85,1104.17,948.56,1060.61,994.42z"/>
		<g>
			<path fill="#231815" d="M1111.31,849.28c32.04-14.32,71.64-16.22,109.72-2.23c71.02,26.08,110.31,97.68,87.57,159.6
				c-17.08,46.53-64.4,74.56-117,74.56c-17.4,0-35.39-3.07-53.04-9.55c-31.33-11.51-56.49-31.87-72.87-56.36l8.67-3.3
				c14.43,22.44,41.2,33.52,69.91,44.07c62.43,22.92,129.15-1.82,148.73-55.14c19.58-53.33-15.28-115.36-77.7-138.29
				c-15.81-5.8-31.91-8.55-47.43-8.55c-20.01,0-39.08,4.56-55.44,13.02"/>
		</g>
		<g>
			<path fill="#231815" d="M302.74,960.54c-16.35,21.99-40.01,40.15-68.93,50.77c-17.66,6.48-35.64,9.56-53.04,9.56
				c-52.6,0-99.92-28.03-117-74.57l0,0c-22.73-61.92,16.55-133.52,87.57-159.6c28.96-10.63,58.78-12.08,85.5-5.87l-4.72,9.52
				c-19.87-4.2-47.76-0.65-74.52,9.17c-62.42,22.93-97.82,87.73-78.24,141.06l0,0c19.58,53.33,86.3,78.05,148.73,55.14
				c26.74-9.82,48.42-26.82,62.93-47.23"/>
		</g>
		<path fill="#231815" d="M183.71,881.49c-3.5,0-6.75-2.23-7.89-5.73L32.26,441.84c-1.42-4.36,0.96-9.05,5.32-10.47
			c4.34-1.43,17.67-4.08,19.09,0.28L191.61,870.6c1.42,4.36-0.96,9.05-5.32,10.47C185.44,881.36,184.57,881.49,183.71,881.49z"/>
		<path fill="#231815" d="M131.57,592.14l128.82-129.6L80.41,442.99c-4.54-0.65-11.38-17.91-6.88-17.2l205.58,22.67
			c3.11,0.45,5.7,2.61,6.69,5.58s0.23,6.26-1.99,8.49L143.35,603.84C141.73,605.48,128.34,595.39,131.57,592.14z"/>
		<path fill="#231815" d="M1189.4,916.51c-0.61,0.17-1.26,0.27-1.93,0.29c-4.59,0.14-8.42-3.46-8.56-8.04l1.08-431.33
			c-0.14-4.58,3.45-8.43,8.04-8.56c4.59-0.14,13.93,1.77,14.07,6.36l-5.26,432.25C1196.96,911.39,1193.02,915.53,1189.4,916.51z"/>
		<path fill="#231815" d="M1235.21,665.56c-3.61,0.98-7.55-0.59-9.44-4c-2.22-4.02-0.76-9.07,3.25-11.29L1389,561.96l-166.46-70.76
			c-4.18-1.9-3.69-23.42,0.49-21.52l187.89,84.01c2.86,1.3,4.74,4.1,4.85,7.24c0.12,3.14-1.53,6.07-4.28,7.59l-174.43,96.29
			C1236.46,665.14,1235.84,665.39,1235.21,665.56z"/>
		<path fill="#231815" d="M708.13,1168.22c-175.74,0-343.39-88.2-403.63-187.98c-102.96-170.53-79.76-343.54,75.25-560.98
			c76.87-107.83,154.22-172.82,236.45-198.67c66.94-21.04,137.46-17.42,228.68,11.77c108.18,34.61,196.61,155.32,229.48,252.29
			c11.32,33.39,38.18,96.76,45.86,160.12c4.2,34.7,8.02,66.49,9.17,134.13c1.19,70.26-14.38,228.47-189.68,329.64
			C866.82,1150.6,786.66,1168.22,708.13,1168.22z M709.8,228.6c-103.09,0-207.2,46.93-316.53,200.29
			c-37.48,52.58-61.81,109.63-83.57,157.4c-65.68,144.19-65.39,262.12,9.02,385.36c57.85,95.81,219.03,180.34,388.26,180.36
			c76.08,0.01,153.74-17.07,224.44-57.87c167.6-96.73,176.34-229.44,182.72-326.33c0.2-3.03-1.32-68.07-12.26-132.23
			c-9.8-57.45-28.6-113.34-36.69-137.19c-27.42-80.85-109.61-206.19-222.41-242.28C796.4,241.28,753.7,228.6,709.8,228.6z"/>
		<g>
			<path fill="#231815" d="M869.69,678.76c6.81-8.82,12.44-19.02,16.66-30.45c11.2-30.33,11.24-65.66,0.13-99.47
				c-23.17-70.5-88.31-112.61-145.21-93.95c-27.91,9.17-49.59,31.3-61.03,62.3c-11.2,30.33-11.24,65.66-0.13,99.47
				c16.97,51.62,56.43,88.02,98.68,96.48 M695.89,611.47c-9.95-30.27-9.98-61.71-0.07-88.53c9.66-26.15,27.64-44.71,50.64-52.27
				c7.49-2.46,15.15-3.64,22.84-3.64c41.81,0,84.25,34.79,101.4,86.99c9.95,30.27,9.97,61.71,0.07,88.53
				c-6,16.24-15.22,29.55-26.85,39.12c-4.96,1.04-10.06,2.37-15.24,4.15c-12.56,4.33-22.12,8.64-29.39,12.5
				C756.85,699.45,713.32,664.5,695.89,611.47z"/>
			<path fill="#231815" d="M556.08,698.46c17.72-2.74,35.11-10.59,50.89-23.38c25.11-20.36,43.19-50.71,50.9-85.47
				s4.16-69.91-9.99-98.98c-14.46-29.71-38.22-49.58-66.9-55.94c-28.69-6.36-58.61,1.59-84.29,22.41
				c-25.11,20.36-43.19,50.71-50.9,85.47s-4.16,69.91,9.99,98.98c4.12,8.47,9.08,16.04,14.61,22.82 M641.65,586.02
				c-6.9,31.11-22.93,58.15-45.14,76.16c-16.03,13-33.85,20.04-51.62,20.72c-9.61-5.87-26.4-14.27-47.19-16.93
				c-1-0.13-1.94-0.22-2.91-0.33c-9.66-8.02-17.85-18.59-24.07-31.37c-12.51-25.71-15.6-57-8.7-88.11s22.93-58.15,45.14-76.16
				c16.88-13.68,35.75-20.82,54.44-20.82c5.29,0,10.57,0.57,15.78,1.73c23.63,5.24,43.37,21.93,55.57,47
				C645.46,523.62,648.55,554.91,641.65,586.02z"/>
		</g>
		
			<ellipse transform="matrix(0.0553 -0.9985 0.9985 0.0553 -30.6366 1103.1587)" fill="#0B0C0C" cx="567.65" cy="567.77" rx="43" ry="41.61"/>
		
			<ellipse transform="matrix(0.0553 -0.9985 0.9985 0.0553 140.1257 1306.0784)" fill="#0B0C0C" cx="760.27" cy="578.99" rx="44.68" ry="41.61"/>
		<g>
			<path fill="#FFFFFF" d="M594.19,843.85c0,0-58.06,58.08-16.28,68.85c41.78,10.77,68.33,40.98,79.08-58.87"/>
			<path fill="#FFFFFF" d="M680.12,857.36c0,0-35.16,74.22,7.81,70.31c42.97-3.91,78.13,15.63,54.69-82.03"/>
			<path fill="#231815" d="M684.73,941.95c-14.18,0-21.96-6.64-26.07-12.52c-15.64-22.41,2.7-65.45,8.7-78.11
				c3.34-7.04,11.74-10.05,18.79-6.72s0.61,9.2-2.72,16.25c-10.36,21.96-7.89,48.44-1.15,55.6s52.15,0.21,55.03-3.44
				c2.35-2.99,8.6-21.78-8.42-64.08c-2.91-7.23,2.85-15.2,10.43-17.02c7.59-1.84,15.21,2.86,17.02,10.43
				c10.86,45.25,10.56,69.7-1.02,84.39c-11.36,14.4-29.37,14.4-46.79,14.4c-6.29,0-12.8,0-19.32,0.6
				C687.65,941.88,686.16,941.95,684.73,941.95z"/>
		</g>
		<path fill="#FFFFFF" d="M577.33,571.96c0,0,2.2-5.13,15.38-15.38c13.18,12.45-1.46,30.03-1.46,30.03L577.33,571.96z"/>
		<path fill="#FFFFFF" d="M769.23,588.07l18.31-18.31c0,0,5.13,9.52,2.93,16.85c-2.2,7.32-5.86,9.52-5.86,9.52L769.23,588.07z"/>
		<g>
			<path fill="#231815" d="M627.64,184.4c-31.14-0.76-53.28-7.61-65.92-28.66c-11.87-19.76-11.13-57.19,28.66-81.4
				c26.29-16,81.02-23.11,131.98-0.43c20.07,8.93,21.05,12.65,22.78,15.33c1.51,2.34,1.97,9.71-3.01,13.22
				c-3.36,2.37-6.96,2.01-9.89,1.4c-7.26-1.53-11.18-8.88-19.14-13.34c-33.95-18.99-79.29-27.55-119.23-1.53
				c-21.65,14.1-23.93,39.02-13.82,55.85c22.18,36.93,101.16,15.73,135.23-4.46c4.01-2.38,9.19-1.06,11.57,2.96
				c2.38,4.01,1.05,9.19-2.96,11.57C700.36,168.87,658.78,183.25,627.64,184.4z"/>
			<path fill="#231815" d="M657.44,252.8c0,0-11.23-20.03,15.67-59.61c25.39-37.36,48.69-50.96,48.69-50.96s-50.42-4.14-59.77-2.15
				c-12.61,2.68-19.87,2.29-22.93-4.2c-4.17-8.86,5.73-22.16,28.41-17.22c18.02,2.7,80.69,7.76,86.99,13.78
				c3.28,3.13,2.67,8.41-1.91,14.14c-4.59,5.73-9.55-3.44-17.96,2.29c-9.25,6.3-37.46,25.61-51.59,45.86
				c-25.79,36.97-9.94,60.38-9.94,60.38C667.08,258.91,657.83,257.39,657.44,252.8z"/>
		</g>
		<path fill="#231815" d="M780.44,259.5c-11.02-28.52-27.27-94.32,32.06-144.35c37.07-31.26,105.71-24.67,139.07,9.04
			c13.72,13.85,29.38,39.35,9.05,62.75c-20.91,24.09-52.06,15.95-64.68,13.04c-36.16-8.34-43.19-28.46-42.42-50.07
			c0.2-5.56-3.37-11.58-8.69-13.21c-9.04-2.78-17.67,2.04-18.31,14.14c-1.51,28.28,13.79,52.61,63.46,65.74
			c35.29,9.32,64.17,3.37,84.53-20.08c23.07-26.57,17.38-59.8-11.82-86.22C920.38,72,849.03,63.15,803.45,101.94
			c-57.47,48.9-46.51,124.17-37.87,157.71c0,0,2.67,7.36,15.28,1.62"/>
		<path fill="#231815" d="M785.55,725.98c-1.99,0-3.97-0.7-5.55-2.13c-3.36-3.05-3.7-8.19-0.7-11.59
			c1.22-1.38,12.93-13.87,49.39-26.44c35.06-12.1,67.35-5.15,68.71-4.85c4.47,1,7.3,5.43,6.31,9.91c-1,4.47-5.43,7.26-9.91,6.31
			c-0.28-0.06-29.69-8.49-60.18,2.02c-32.15,11.09-41.83,24-41.93,24.1C790.04,725.08,787.8,725.98,785.55,725.98z"/>
		<path fill="#231815" d="M548.5,703.69c-1.83,0-3.66-0.6-5.2-1.83c-0.19-0.14-17.51-18.62-45.02-22.14
			c-28.97-3.74-43.56,3.25-43.67,3.3c-4.26,1.58-9.04-0.52-10.69-4.74s0.32-8.96,4.51-10.68c1.5-0.62,15.68-5.92,49.27-1.64
			c32.31,4.14,55.06,22.17,56.01,22.94c3.58,2.87,4.15,8.1,1.27,11.67C553.34,702.63,550.93,703.69,548.5,703.69z"/>
		<ellipse fill="#231815" cx="679.9" cy="258.87" rx="8.64" ry="3.36"/>
		<ellipse fill="#231815" cx="718.61" cy="262.39" rx="9.28" ry="3.36"/>
		<ellipse fill="#231815" cx="707.09" cy="251.2" rx="9.28" ry="3.36"/>
		<ellipse fill="#231815" cx="729.17" cy="243.84" rx="9.28" ry="3.36"/>
		<ellipse fill="#231815" cx="691.1" cy="241.28" rx="9.28" ry="3.36"/>
		<ellipse fill="#231815" cx="634.8" cy="267.03" rx="9.28" ry="3.36"/>
		<ellipse fill="#231815" cx="614.33" cy="256.16" rx="9.28" ry="3.36"/>
		<ellipse fill="#231815" cx="631.28" cy="246.56" rx="9.28" ry="3.36"/>
		<ellipse fill="#231815" cx="663.58" cy="270.07" rx="9.28" ry="3.36"/>
		<ellipse fill="#231815" cx="697.18" cy="273.75" rx="9.28" ry="3.36"/>
		<ellipse fill="#231815" cx="733.32" cy="277.91" rx="9.28" ry="3.36"/>
		<ellipse fill="#231815" cx="760.71" cy="279.05" rx="9.28" ry="3.36"/>
		<ellipse fill="#231815" cx="736.73" cy="269.28" rx="6.7" ry="2.42"/>
		<ellipse fill="#231815" cx="695.84" cy="261.25" rx="6.7" ry="2.42"/>
		<ellipse fill="#231815" cx="714.95" cy="270.81" rx="6.7" ry="2.42"/>
		<ellipse fill="#231815" cx="610.75" cy="265.34" rx="6.7" ry="2.42"/>
		<ellipse fill="#231815" cx="591.3" cy="259.03" rx="6.7" ry="2.42"/>
		<ellipse fill="#231815" cx="610.44" cy="247.33" rx="6.7" ry="2.42"/>
		<ellipse fill="#231815" cx="787.87" cy="251.63" rx="6.7" ry="2.42"/>
		<ellipse fill="#231815" cx="734.75" cy="232.14" rx="6.7" ry="2.42"/>
		<ellipse fill="#231815" cx="688.13" cy="250.86" rx="6.7" ry="2.42"/>
		<ellipse fill="#231815" cx="653.74" cy="243.99" rx="6.7" ry="2.42"/>
		<ellipse fill="#231815" cx="651.33" cy="261.28" rx="6.7" ry="2.42"/>
		<ellipse fill="#231815" cx="636.62" cy="254.92" rx="6.7" ry="2.42"/>
		<ellipse fill="#231815" cx="759.28" cy="263.57" rx="6.7" ry="2.42"/>
		<ellipse fill="#231815" cx="752.77" cy="271.46" rx="6.7" ry="2.42"/>
		<ellipse fill="#231815" cx="726.78" cy="252.35" rx="6.7" ry="2.42"/>
		<ellipse fill="#231815" cx="743.07" cy="251.2" rx="6.7" ry="2.42"/>
		<ellipse fill="#231815" cx="759.5" cy="254.64" rx="6.7" ry="2.42"/>
		<ellipse fill="#231815" cx="795.87" cy="244.9" rx="6.7" ry="2.42"/>
		<ellipse fill="#231815" cx="683.52" cy="266.71" rx="6.7" ry="2.42"/>
		<ellipse fill="#231815" cx="648.66" cy="279.3" rx="6.7" ry="2.42"/>
		<ellipse fill="#231815" cx="628.97" cy="276.24" rx="6.7" ry="2.42"/>
		<ellipse fill="#231815" cx="673.87" cy="281.59" rx="6.7" ry="2.42"/>
		<ellipse fill="#231815" cx="692.68" cy="283.01" rx="6.7" ry="2.42"/>
		<ellipse fill="#231815" cx="709.99" cy="288.85" rx="6.7" ry="2.42"/>
		<ellipse fill="#231815" cx="595.92" cy="271.4" rx="6.7" ry="2.42"/>
		<ellipse fill="#231815" cx="747.06" cy="290" rx="6.7" ry="2.42"/>
		<ellipse fill="#231815" cx="784.51" cy="284.65" rx="6.7" ry="2.42"/>
		<ellipse fill="#231815" cx="817.45" cy="276.56" rx="6.7" ry="2.42"/>
		<ellipse fill="#231815" cx="849.41" cy="268.83" rx="6.7" ry="2.42"/>
		<ellipse fill="#231815" cx="857.31" cy="262.23" rx="6.7" ry="2.42"/>
		<ellipse fill="#231815" cx="870.47" cy="270.81" rx="6.7" ry="2.42"/>
		<ellipse fill="#231815" cx="572.99" cy="262.1" rx="6.7" ry="2.42"/>
		<ellipse fill="#231815" cx="838.64" cy="276.38" rx="6.7" ry="2.42"/>
		<ellipse fill="#231815" cx="708.83" cy="243.29" rx="6.7" ry="2.42"/>
		<ellipse fill="#231815" cx="774.49" cy="269.92" rx="9.28" ry="3.36"/>
		<ellipse fill="#231815" cx="758.55" cy="245.97" rx="9.28" ry="3.36"/>
		<ellipse fill="#231815" cx="773.63" cy="243.36" rx="9.28" ry="3.36"/>
		<ellipse fill="#231815" cx="806.58" cy="253.28" rx="9.28" ry="3.36"/>
		<ellipse fill="#231815" cx="799.22" cy="262.23" rx="9.28" ry="3.36"/>
		<ellipse fill="#231815" cx="822.25" cy="267.67" rx="9.28" ry="3.36"/>
		<ellipse fill="#231815" cx="832.95" cy="258.12" rx="9.28" ry="3.36"/>
		<ellipse fill="#231815" cx="797.56" cy="274.63" rx="7.81" ry="2.83"/>
		<ellipse fill="#231815" cx="739.85" cy="259.4" rx="9.28" ry="3.36"/>
		<ellipse fill="#231815" cx="713.81" cy="234.4" rx="9.28" ry="3.36"/>
		<ellipse fill="#231815" cx="668.39" cy="247.84" rx="9.28" ry="3.36"/>
		<ellipse fill="#231815" cx="671.59" cy="235.36" rx="9.28" ry="3.36"/>
		<ellipse fill="#231815" cx="642.8" cy="235.68" rx="9.28" ry="3.36"/>
		<ellipse fill="#231815" cx="747.77" cy="237.52" rx="9.28" ry="3.36"/>
		<ellipse fill="#231815" cx="694.3" cy="227.69" rx="9.28" ry="3.36"/>
		<path fill="#F6BCA5" d="M697.19,700.93c-1.95-4.31-6.88-13.76-8.02-18.34c-1.15-4.59-28.66-28.66-28.66-28.66
			s-29.81-13.76-33.25-16.05s-40.12,5.73-44.71,8.02c-4.59,2.29,5.73,66.49,8.02,69.93c2.29,3.44,47,21.78,47,21.78
			S718.97,749.08,697.19,700.93z"/>
		<path fill="#231815" d="M598.64,734.68c-4.03-3.16-39.27-31.82-37-63.34c0.74-10.23,5.76-24.8,25.5-36.16
			c59.01-34,120.16,54.72,122.73,58.51c4.38,6.45,2.7,15.23-3.75,19.61c-6.44,4.38-15.22,2.7-19.61-3.75
			c-0.7-1.01-45.86-79.66-81.6-59.04c-10.89,6.27-17.64,22.81-17.77,24.65c-0.95,13.21,18.92,36.11,28.95,37.34
			c9.64-0.01,14.23,5.52,15.09,11.58s-2.03,12.63-7.35,14.71C610.63,743.92,601.22,736.71,598.64,734.68z"/>
		
			<ellipse transform="matrix(0.2298 -0.9732 0.9732 0.2298 -406.1197 918.5899)" fill="#F6BCA5" cx="377.32" cy="715.89" rx="21.78" ry="38.98"/>
		
			<ellipse transform="matrix(0.967 -0.2547 0.2547 0.967 -151.9557 269.6944)" fill="#F6BCA5" cx="965.41" cy="721.6" rx="38.98" ry="21.78"/>
		<g>
			<path fill="#231815" d="M615.29,937.17c-17.31,0-33.38-10.93-44.9-18.77l-3.56-2.41c-7.46-4.97-11.96-12.29-13.04-21.17
				c-3.04-25.14,30.1-52.56,35.65-58.61c5.27-5.75,8.54-10.15,14.29-4.88s6.14,14.2,0.87,19.95c-11.79,12.91-27.2,30.79-26.05,42.26
				c1.15,11.46,28.66,22.36,40.7,20.06s21.14-14.46,28.09-59.61c1.19-7.71,3.81-15.63,11.51-14.48c7.71,1.19,13,8.39,11.81,16.1
				c-6.87,44.63-19.48,69.51-39.68,78.3C625.68,936.2,620.43,937.17,615.29,937.17z"/>
		</g>
		<path fill="#231815" d="M677.74,855.86c-118.91,0-185.97-57.11-190.02-60.67c-5.86-5.14-6.44-14.06-1.3-19.92
			c5.14-5.85,14.05-6.44,19.91-1.32c3.76,3.26,61.85,66.11,169.08,66.27c52.54,0.07,118.18-24.5,192.47-59.89
			c7.06-3.35,15.47-0.36,18.82,6.68c3.35,7.04,0.36,15.47-6.68,18.82C801.79,843.08,733.97,855.86,677.74,855.86z"/>
		<path fill="#231815" d="M910.31,834.81c-0.74,0-1.48-0.06-2.23-0.18c-21.82-3.47-36.82-16.57-42.24-36.87
			c-5.3-19.83-5.77-39.71-5.79-40.54c-0.16-7.79,6.03-14.25,13.82-14.41c7.85,0.01,14.24,6.03,14.41,13.81l0,0
			c0,0.17-5.75,16.71-1.36,33.16c1.72,6.42,11.66,14.75,25.59,16.96c7.7,1.22,12.96,8.46,11.73,16.16
			C923.13,829.85,917.13,834.81,910.31,834.81z"/>
		<path fill="#231815" d="M462.43,815.85c-5.72,0-11.1-3.5-13.22-9.17c-2.74-7.3,0.96-15.44,8.26-18.17
			c11.8-4.43,23.62-5.36,28.21-11.91c8.36-11.95,2.99-29.9,2.77-31.95c-0.82-7.7,4.7-14.7,12.39-15.6
			c7.72-0.85,14.67,4.49,15.64,12.17c2.32,18.26-4.95,57.17-49.09,73.72C465.75,815.56,464.07,815.85,462.43,815.85z"/>
		<g>
			<g>
				<path fill="#231815" d="M519.96,1206.42c1.7,1.45,3.92,2.12,6.13,1.96c97.42-8.64,203.88-6.82,316.44,5.41
					c2.37,0.27,4.65-0.49,6.4-2.04s2.77-3.77,2.8-6.11l7.87-67.54c-5.54,1.78-18.04,3.27-23.62,4.82l-0.73,53.39
					c-107.05-11.14-208.61-12.87-302.17-5.2l-2.12-39.63c-5.75-1.95-15.77-5.15-21.4-7.26l7.51,56.44
					C517.22,1202.89,518.26,1204.97,519.96,1206.42z"/>
				<path fill="#231815" d="M379.36,1231.24c23.06-5.36,47.37-10.03,72.36-13.89c2.23-0.34,4.22-1.58,5.52-3.42
					c1.3-1.84,1.79-4.14,1.36-6.35l-12.49-116.1c-6.54-3.74-23.34-10.55-29.55-14.5l24.12,125.3c-22.13,3.6-44.29,9.77-64.88,14.54
					c-23.51-19.73-48.85-44.66-72.64-68.45c-36.64-36.64-83.11-93.22-117-136.02c-7.39,0.29-14.68,0.01-21.8-0.84
					c34.54,44,86.61,108.15,127.05,148.6c23.25,23.25,48.57,45.77,71.71,65.27l3.03,4.62l5.73,3.15L379.36,1231.24z M749.86,1532.05
					l-4.54,0.68c-2.32,0.34-4.39,1.66-5.69,3.62s-1.71,4.37-1.13,6.65l31.61,112.02c0.93,3.63,4.18,6.2,7.93,6.25
					c4.49,0.06,27.38,0.53,75.91,0.53c114.59,0,277.34,3.25,333.09-13.48c49.93-14.97,82.14-41.2,82.04-75.89
					c-0.07-28.82-22.14-52.51-59.01-63.35c-64.7-19.04-146.1,30.27-180.64,39.35l15.19-52.24c0.71-2.7,0.01-5.58-1.85-7.66
					c-1.86-2.08-4.62-3.09-7.41-2.67l-36.39,4.8l13.69-260.14c0.01-0.48-0.15-0.92-0.22-1.38c2.68-1.77,5.42-3.59,8.25-5.49
					c63.36-42.34,121.66-102.94,162.83-151.09c-6.54-0.38-18.98-1.2-25.6-2.52c-39.85,45.76-83.5,100.78-141.87,139.79
					c-5.53,3.7-10.69,7.1-15.61,10.32c-12.22-2.47-39.35-6.78-69.6-11.49l15.14-93.88c-4.97,3.11-10.05,6.2-15.32,9.24
					c-1.15,0.66-11.81,4.25-12.96,4.9l-4.66,85.26c-0.38,2.2,0.14,4.46,1.45,6.27s3.29,3.02,5.5,3.35
					c37.39,5.64,64.27,10.91,76,13.33l-7.78,256.01l-221.9,36.45 M654.67,1519.26l-207.5-46.95L383.2,1264.4l-22.23-3.99
					l69.79,208.54l-31.05-7.6c-2.55-0.52-5.21,0.19-7.16,1.91c-1.96,1.72-2.99,4.27-2.79,6.87l20.25,63.7
					c-31.9-10.65-173.51-59.47-226.94-34.72c-19.28,8.92-32.52,23.35-39.36,42.87c-7.65,21.87-6.75,40.59,2.68,55.66
					c20.81,33.21,100.98,45.6,198.37,56.84c118.97,13.73,324.98,6.74,327.1,6.78c0.06,0,0.12,0,0.18,0c3.76,0,7.06-2.53,8.03-6.18
					l39.21-113.07c0.58-2.21,0.23-4.55-0.97-6.5c-1.2-1.94-3.15-3.3-5.39-3.76l-21.12-5.56l5.28-48.28l46.03,9.09l9.46,26.58
					l10.95-2.54l-4.82-32.14c-0.51-3.4-3.06-6.13-6.41-6.88l-59.95-12.18c-2.21-0.49-4.49-0.07-6.37,1.17
					c-1.88,1.23-3.17,3.18-3.59,5.38l-6.84,56.46l-3.92,16.15l29.36,7.25l-35.29,98.24c-36.64-0.92-212.58,5.76-319.02-6.53
					c-71.97-8.3-167.27-18.94-186.2-49.15c-6.71-10.72-7.07-24.24-1.08-41.35c5.36-15.33,15.39-26.21,30.64-33.28
					c14.36-6.65,30.41-8.79,48.54-6.91c60.38,6.27,176.89,46.06,177.73,46.38c2.66,1.01,5.66,0.6,7.94-1.1
					c2.29-1.7,3.54-4.46,3.32-7.3l-20.39-65.43l243.36,55.53 M1182.27,1638.27c-71.3,21.4-348.5,7.02-397.64,6.46l-27.75-96.93
					l268.48-43.65l-15.67,54.08c-0.77,2.92,0.11,6.02,2.28,8.1c2.19,2.09,5.3,2.83,8.19,1.95c1.18-0.36,110.12-65.35,185.22-43.26
					c29.43,8.66,47.04,26.4,47.09,47.47C1252.54,1599.63,1224.99,1625.46,1182.27,1638.27z"/>
			</g>
			<g>
				<path fill="#231815" d="M812.12,1362.96l2.84-101.12c0.06-2.3,1.13-4.27,3.2-5.91s4.49-2.42,7.27-2.34
					c2.93,0.08,5.43,0.99,7.49,2.71c2.05,1.72,3.05,3.77,2.98,6.13l-1.14,40.39l56.87-44.96c2.34-1.54,4.79-2.27,7.33-2.2
					c4.52,0.13,7.72,1.92,9.61,5.36c1.89,3.45,1.25,6.41-1.92,8.88l-52.61,41.53c0,0,24.15,10.64,28.59,15.73
					s16.14,31.04,16.14,31.04c2.63,2.31,3.21,7.02,1.2,10.42c-1.92,3.47-5.14,5.14-9.67,5.01c-2.85-0.08-5.33-1.01-7.42-2.8
					c0,0-8.85-25.38-15.69-31.68s-32.95-18.13-32.95-18.13l-1.2,42.53c-0.06,2.3-1.17,4.24-3.32,5.81
					c-2.15,1.57-4.69,2.32-7.62,2.24c-2.78-0.08-5.15-0.98-7.13-2.7C813.01,1367.17,812.06,1365.2,812.12,1362.96z"/>
				<path fill="#231815" d="M712.75,1251.1l12.33,0.35c20.47,1.2,38.58,8.34,43.75,12.78c5.17,4.44,24.41,25.52,23.82,48.17
					c-0.42,15.79-5.91,27.37-17.3,37.55c-12.78,11.35-31.66,16.47-53.48,15.85l-12.52-0.35c0,0-4.68-1.86-4.6-4.87
					c0.58-20.49,2.83-100.65,2.94-104.47C707.81,1251.71,712.75,1251.1,712.75,1251.1z M726.68,1347.24
					c13.18-0.14,24.76-1.93,32.86-9.07c8.1-7.13,13.34-16.09,13.66-27.47c0.29-10.17-10.9-26.88-15.86-30.93
					c-4.95-4.06-18.33-7.96-30.04-9.06L726.68,1347.24z"/>
				<path fill="#231815" d="M504.06,1329.48c-0.16,5.63,0.95,9.79,3.34,12.48c2.39,2.69,6.24,4.11,11.55,4.26
					c5.39,0.15,9.34-1.01,11.83-3.5s3.82-6.61,3.98-12.37l2.16-76.84c0.07-2.36,1.13-4.35,3.2-5.95c2.07-1.61,4.57-2.37,7.51-2.29
					c2.93,0.08,5.39,0.99,7.37,2.71s2.93,3.76,2.86,6.13l-2.16,76.84c-0.32,11.51-3.48,19.84-9.46,24.98
					c-5.98,5.14-15.24,7.54-27.77,7.19c-24.35-0.69-36.21-12.09-35.59-34.22c0.06-2.3,1.19-4.25,3.38-5.86
					c2.19-1.6,4.71-2.36,7.57-2.28c2.77,0.08,5.19,1,7.24,2.75C503.13,1325.24,504.13,1327.24,504.06,1329.48z"/>
				<path fill="#231815" d="M643.21,1360.02l-10.75-32.56l-12.57,31.9c-1.78,4.05-5.25,6-10.41,5.86l-5.47-0.15
					c-2.3-0.06-4.38-0.72-6.26-1.96c-1.87-1.23-3.02-2.72-3.45-4.46c-3.17-11.61-5.8-28.58-7.92-50.91
					c-2.11-22.33-2.98-39.93-2.62-52.78c0.06-2.3,1.17-4.27,3.32-5.91c2.15-1.63,4.61-2.42,7.39-2.34c2.93,0.08,5.39,0.99,7.37,2.71
					s2.93,3.76,2.86,6.13c-0.25,8.76,0.11,21.4,1.08,37.91c0.96,16.51,2.16,28.88,3.6,37.11l12.93-32.09
					c0.68-1.71,1.99-3.13,3.93-4.26s4.01-1.66,6.24-1.6l1.9,0.05c2.22,0.06,4.26,0.71,6.14,1.95c1.87,1.24,3.1,2.73,3.68,4.47
					l11.11,32.76c1.89-8.14,3.79-20.42,5.68-36.85c1.89-16.43,2.96-29.03,3.21-37.79c0.07-2.36,1.14-4.35,3.2-5.95
					c2.07-1.61,4.57-2.37,7.51-2.29c2.78,0.08,5.19,1,7.25,2.75c2.05,1.75,3.05,3.78,2.98,6.08c-0.36,12.86-2.22,30.37-5.59,52.55
					c-3.36,22.18-6.95,38.98-10.77,50.39c-0.52,1.71-1.75,3.14-3.69,4.26c-1.94,1.13-4.06,1.67-6.36,1.6l-5.47-0.15
					C648.11,1366.31,644.76,1364.16,643.21,1360.02z"/>
			</g>
		</g>
	</g>
</g>
</svg>
