<svg height="1400" viewBox="0 0 1400 1400" width="1400" xmlns="http://www.w3.org/2000/svg"><path d="m244.8 829.5 162.3 172 115-20.3 393.3 32.9 1.9-13.1 118.1-112.5s-80.6-50.6-86.2-73.1l-605.6-41.3s-14 54.5-98.8 55.4z" fill="#93b8ce"/><path d="m672.2 180.9s-154.2-3.6-209.2 96.4-165 197.5-157.5 382.4 222.5 287.5 335 282.5 339.9-47.5 354.9-222.5-23.9-502.7-323.2-538.8z" fill="#fbe7dd"/><path d="m549.8 207.9s135 65.6 275.6 9.4c0 0-88.1-93.7-275.6-9.4z" fill="#d1cebe"/><path d="m558 377.3c-3.9-.9-70-7.5-81.3 37.5s-6.2 108.7 16.3 125l50 18.7h20l27.5-46.2 19.3 4s59.4-112.8-51.8-139z" fill="#fff"/><path d="m671.7 403.5s-28.7 25-15 73.8 35 82.5 87.5 95l51.2-18.8s20.7-23.8 25-53.7c2.5-17.1-7.4-39.4-11.5-52-11.3-35-62.2-68-137.2-44.3z" fill="#fff"/><path d="m135.7 368.5 39 142.5 107-143.3-154-14" fill="#f3ed67"/><path d="m1140.8 415.9-37 130.2 174.5-34.1-137.4-112.3" fill="#f3ed67"/><path d="m456.1 894.1 14.7 93.2-63.7 14.2.3 33.2 52.5 172.5 193.1 41.2 11.2-54.3 53.1 9.9 6.9 57.6 181.9-26.3 11.2-234.3s-78.2-4.3-73.8-13.4 15-98.2 15-98.2l-78 39.9 7.4 21-2 36.9s-78.6-36.9-260.4-12.5a439.5 439.5 0 0 1 -3.8-52.5z" fill="#e08067"/><path d="m434.2 1218.4c0 3.8 7.5 38.8 7.5 38.8s-135-50-190-31.3-28.7 77.5-28.7 77.5 35 25 112.5 30 296.2 7.5 296.2 7.5l18.8-71.2z" fill="#6a8185"/><path d="m710.4 1255.9 208.8-32.5-10 67.5 101.2-36.2s93.8-21.3 100 28.7 2.5 61.3-105 62.5-268.7 2.5-272.5-1.2-22.5-88.8-22.5-88.8z" fill="#6a8185"/><path d="m298.6 641s-101.2-18.7-135 50.6 40.7 172.4 171.3 78.7z" fill="#fbe7dd"/><path d="m964.2 807.9s20.6 31.8 37.5 43.1 95.6 35.6 127.5 5.6c0 0 67.4-41.2 33.7-103.1s-120-86.3-157.5-58.1c0 0-5.6 75-41.2 112.5z" fill="#fbe7dd"/><path d="m1005.6 689.2c26.2-11.7 58.6-13.3 89.7-1.8 58.1 21.3 90.2 79.8 71.6 130.5-13.9 38-52.6 60.9-95.6 60.9a125.6 125.6 0 0 1 -43.4-7.8c-25.6-9.4-46.2-26.1-59.6-46.1l7.1-2.7c11.8 18.4 33.7 27.4 57.2 36.1 51 18.7 105.6-1.5 121.6-45.1s-12.5-94.4-63.5-113.1a114.1 114.1 0 0 0 -38.8-7 97.3 97.3 0 0 0 -45.3 10.7" fill="#231815"/><path d="m344.5 780.2a123.4 123.4 0 0 1 -56.4 41.5 125.5 125.5 0 0 1 -43.3 7.8c-43.1 0-81.7-22.9-95.7-61-18.6-50.6 13.5-109.2 71.6-130.5 23.7-8.7 48.1-9.9 69.9-4.8l-3.9 7.8c-16.2-3.4-39-.5-60.9 7.5-51 18.7-80 71.7-64 115.3 16.1 43.6 70.6 63.9 121.6 45.1a108.9 108.9 0 0 0 51.5-38.6" fill="#231815"/><path d="m247.2 715.5a6.7 6.7 0 0 1 -6.5-4.7l-117.4-354.8a6.8 6.8 0 0 1 4.4-8.5c3.5-1.2 14.4-3.4 15.6.2l110.3 358.9a6.8 6.8 0 0 1 -4.3 8.6 7.6 7.6 0 0 1 -2.1.3z" fill="#231815"/><path d="m204.5 478.9 105.4-105.9-147.2-16c-3.7-.6-9.3-14.7-5.6-14.1l168.1 18.5a6.9 6.9 0 0 1 5.4 4.6 6.8 6.8 0 0 1 -1.6 7l-114.8 115.5c-1.4 1.3-12.3-6.9-9.7-9.6z" fill="#231815"/><path d="m1063.5 751.6a3.9 3.9 0 0 1 -1.5-.2 6.8 6.8 0 0 1 -5.1-8.2l85.4-354a6.7 6.7 0 0 1 8.2-5.1c3.6.9 10.6 4.4 9.7 8.1l-90.1 354.2a6.7 6.7 0 0 1 -6.6 5.2z" fill="#231815"/><path d="m1145.5 549.4a6.7 6.7 0 0 1 -1.6-13.3l145.2-35.4-116.2-91.5c-2.9-2.4 2.1-19.3 5-16.9l130.2 106.6a6.6 6.6 0 0 1 2.3 6.7 6.8 6.8 0 0 1 -5 5.1l-158.3 38.6z" fill="#231815"/><path d="m676 950c-143.7 0-280.8-72.1-330.1-153.7-84.2-139.5-65.2-280.9 61.6-458.7 62.8-88.2 126-141.3 193.3-162.5 54.7-17.2 112.4-14.2 187 9.6 88.4 28.3 160.7 127 187.6 206.3 9.3 27.3 31.2 79.1 37.5 131 3.5 28.3 6.6 54.3 7.5 109.6 1 57.5-11.7 186.8-155.1 269.6-59.6 34.4-125.1 48.8-189.3 48.8zm1.3-768.3c-84.3 0-169.4 38.3-258.8 163.7-30.6 43-50.5 89.7-68.3 128.7-53.7 117.9-53.5 214.4 7.4 315.1 47.3 78.4 179 147.5 317.4 147.5 62.2 0 125.7-13.9 183.5-47.3 137.1-79.1 144.2-187.6 149.4-266.8.2-2.5-1-55.7-10-108.1-8-47-23.4-92.7-30-112.2-22.4-66.1-89.6-168.6-181.8-198.1-38-12.2-72.9-22.5-108.8-22.5z" fill="#231815"/><path d="m808.1 549.8a99.3 99.3 0 0 0 13.6-24.9c9.1-24.8 9.2-53.7.1-81.4-19-57.6-72.2-92.1-118.7-76.8-22.9 7.5-40.6 25.6-49.9 50.9s-9.2 53.7-.2 81.4c13.9 42.2 46.2 71.9 80.7 78.9m-67.7-83.2c-8.2-24.7-8.2-50.4-.1-72.4s22.6-36.5 41.4-42.7a60 60 0 0 1 18.7-3c34.2 0 68.9 28.5 82.9 71.2 8.1 24.7 8.1 50.4 0 72.3-4.9 13.3-12.4 24.2-21.9 32-4.1.9-8.2 2-12.5 3.4a183.1 183.1 0 0 0 -24 10.2c-34.7 1-70.3-27.6-84.5-71z" fill="#231815"/><path d="m551.6 565.9c14.5-2.3 28.7-8.7 41.6-19.2 20.6-16.6 35.4-41.4 41.7-69.8s3.4-57.2-8.2-81-31.3-40.5-54.7-45.7-47.9 1.3-68.9 18.3-35.3 41.5-41.6 69.9-3.4 57.2 8.1 80.9a93.5 93.5 0 0 0 12 18.7m140-64.1c-5.6 25.5-18.7 47.6-36.9 62.3-13.1 10.6-27.7 16.4-42.2 16.9a100.7 100.7 0 0 0 -38.6-13.8l-2.4-.3a76.4 76.4 0 0 1 -19.7-25.6c-10.2-21-12.7-46.6-7.1-72.1s18.8-47.5 36.9-62.2c13.8-11.2 29.3-17.1 44.5-17.1a57 57 0 0 1 13 1.5c19.3 4.2 35.4 17.9 45.4 38.4s12.7 46.6 7.1 72z" fill="#231815"/><ellipse cx="561.1" cy="459" fill="#0b0c0c" rx="35.2" ry="34" transform="matrix(.0558215 -.99844076 .99844076 .0558215 71.8 993.8)"/><ellipse cx="718.6" cy="468.2" fill="#0b0c0c" rx="36.5" ry="34" transform="matrix(.0558215 -.99844076 .99844076 .0558215 211.4 1159.8)"/><path d="m582.8 684.7s-47.5 47.5-13.3 56.3 55.9 33.5 64.6-48.1" fill="#fff"/><path d="m653.1 695.8s-28.8 60.7 6.3 57.5 63.9 12.8 44.8-67.1" fill="#fff"/><path d="m656.8 765c-11.6 0-17.9-5.5-21.3-10.3-12.8-18.3 2.2-53.5 7.1-63.8a11.5 11.5 0 0 1 15.4-5.5c5.8 2.7.5 7.5-2.2 13.3-8.5 17.9-6.5 39.6-1 45.4s42.7.2 45-2.8 7.1-17.8-6.9-52.4c-2.3-5.9 2.4-12.4 8.6-13.9a11.5 11.5 0 0 1 13.9 8.5c8.9 37 8.6 57-.8 69s-24.1 11.8-38.3 11.8c-5.2 0-10.5 0-15.8.5z" fill="#231815"/><path d="m569 462.4s1.8-4.2 12.6-12.6c10.8 10.2-1.2 24.6-1.2 24.6z" fill="#fff"/><path d="m725.9 475.6 15-15s4.2 7.8 2.4 13.8-4.8 7.8-4.8 7.8z" fill="#fff"/><g fill="#231815"><path d="m610.1 145.5c-25.4-.6-43.5-6.2-53.9-23.4s-9.1-46.8 23.5-66.6c21.5-13 66.2-18.9 107.9-.3 16.4 7.3 17.2 10.3 18.6 12.5s1.6 8-2.4 10.8-5.7 1.7-8.1 1.2c-6-1.3-9.2-7.3-15.7-10.9-27.7-15.6-64.8-22.6-97.5-1.3-17.7 11.6-19.5 31.9-11.3 45.7 18.2 30.2 82.8 12.9 110.6-3.7a6.9 6.9 0 0 1 7.1 11.9c-19.3 11.4-53.3 23.2-78.8 24.1z"/><path d="m634.5 201.5s-9.2-16.4 12.8-48.8c20.8-30.5 39.8-41.7 39.8-41.7s-41.2-3.3-48.8-1.7c-10.3 2.2-16.3 1.9-18.8-3.5-3.4-7.2 4.7-18.1 23.3-14 14.7 2.2 65.9 6.3 71.1 11.2 2.7 2.6 2.2 6.9-1.6 11.6s-7.8-2.8-14.7 1.9-30.6 20.9-42.1 37.5c-21.1 30.2-8.2 49.3-8.2 49.3-4.9 3.2-12.5 1.9-12.8-1.8z"/><path d="m735.1 206.9c-9-23.3-22.3-77.1 26.2-118 30.3-25.5 86.4-20.2 113.7 7.4 11.2 11.3 24 32.2 7.4 51.3s-42.5 13.1-52.9 10.7c-29.5-6.8-35.3-23.3-34.6-41 .1-4.5-2.8-9.4-7.2-10.8-7.3-2.2-14.4 1.7-14.9 11.6-1.3 23.1 11.3 43 51.9 53.8 28.8 7.6 52.4 2.7 69.1-16.5 18.9-21.7 14.2-48.9-9.7-70.5-34.6-31.3-92.9-38.5-130.2-6.8-47 40-38 101.5-30.9 129 0 0 2.1 6 12.4 1.3"/><path d="m739.3 588.4a6.7 6.7 0 0 1 -4.6-1.8 6.8 6.8 0 0 1 -.5-9.5c.9-1.1 10.5-11.3 40.3-21.6s55.1-4.2 56.2-3.9a6.8 6.8 0 1 1 -2.9 13.2c-.3 0-24.3-6.9-49.2 1.7s-34.2 19.6-34.3 19.7a7.2 7.2 0 0 1 -5 2.2z"/><path d="m545.4 570.1a6 6 0 0 1 -4.2-1.5c-.2-.1-14.3-15.2-36.8-18.1s-35.6 2.7-35.7 2.7a6.8 6.8 0 0 1 -5.1-12.6c1.2-.5 12.8-4.8 40.3-1.3s45 18.1 45.8 18.8a6.7 6.7 0 0 1 1 9.5 6.6 6.6 0 0 1 -5.3 2.5z"/><ellipse cx="652.9" cy="206.4" rx="7.1" ry="2.7"/><ellipse cx="684.5" cy="209.3" rx="7.6" ry="2.7"/><ellipse cx="675.1" cy="200.1" rx="7.6" ry="2.7"/><ellipse cx="693.2" cy="194.1" rx="7.6" ry="2.7"/><ellipse cx="662" cy="192" rx="7.6" ry="2.7"/><ellipse cx="616" cy="213.1" rx="7.6" ry="2.7"/><ellipse cx="599.3" cy="204.2" rx="7.6" ry="2.7"/><ellipse cx="613.1" cy="196.4" rx="7.6" ry="2.7"/><ellipse cx="639.5" cy="215.6" rx="7.6" ry="2.7"/><ellipse cx="667" cy="218.6" rx="7.6" ry="2.7"/><ellipse cx="696.6" cy="222" rx="7.6" ry="2.7"/><ellipse cx="719" cy="222.9" rx="7.6" ry="2.7"/><ellipse cx="699.3" cy="214.9" rx="5.5" ry="2"/><ellipse cx="665.9" cy="208.4" rx="5.5" ry="2"/><ellipse cx="681.5" cy="216.2" rx="5.5" ry="2"/><ellipse cx="596.3" cy="211.7" rx="5.5" ry="2"/><ellipse cx="580.4" cy="206.6" rx="5.5" ry="2"/><ellipse cx="596.1" cy="197" rx="5.5" ry="2"/><ellipse cx="741.2" cy="200.5" rx="5.5" ry="2"/><ellipse cx="697.7" cy="184.6" rx="5.5" ry="2"/><ellipse cx="659.6" cy="199.9" rx="5.5" ry="2"/><ellipse cx="631.5" cy="194.3" rx="5.5" ry="2"/><ellipse cx="629.5" cy="208.4" rx="5.5" ry="2"/><ellipse cx="617.5" cy="203.2" rx="5.5" ry="2"/><ellipse cx="717.8" cy="210.3" rx="5.5" ry="2"/><ellipse cx="712.5" cy="216.7" rx="5.5" ry="2"/><ellipse cx="691.2" cy="201.1" rx="5.5" ry="2"/><ellipse cx="704.5" cy="200.2" rx="5.5" ry="2"/><ellipse cx="718" cy="203" rx="5.5" ry="2"/><ellipse cx="747.7" cy="195" rx="5.5" ry="2"/><ellipse cx="655.8" cy="212.8" rx="5.5" ry="2"/><ellipse cx="627.3" cy="223.1" rx="5.5" ry="2"/><ellipse cx="611.2" cy="220.6" rx="5.5" ry="2"/><ellipse cx="647.9" cy="225" rx="5.5" ry="2"/><ellipse cx="663.3" cy="226.2" rx="5.5" ry="2"/><ellipse cx="677.5" cy="230.9" rx="5.5" ry="2"/><ellipse cx="584.2" cy="216.7" rx="5.5" ry="2"/><ellipse cx="707.8" cy="231.9" rx="5.5" ry="2"/><ellipse cx="738.4" cy="227.5" rx="5.5" ry="2"/><ellipse cx="765.3" cy="220.9" rx="5.5" ry="2"/><ellipse cx="791.5" cy="214.6" rx="5.5" ry="2"/><ellipse cx="797.9" cy="209.2" rx="5.5" ry="2"/><ellipse cx="808.7" cy="216.2" rx="5.5" ry="2"/><ellipse cx="565.5" cy="209.1" rx="5.5" ry="2"/><ellipse cx="782.7" cy="220.7" rx="5.5" ry="2"/><ellipse cx="676.5" cy="193.7" rx="5.5" ry="2"/><ellipse cx="730.2" cy="215.5" rx="7.6" ry="2.7"/><ellipse cx="717.2" cy="195.9" rx="7.6" ry="2.7"/><ellipse cx="729.5" cy="193.7" rx="7.6" ry="2.7"/><ellipse cx="756.5" cy="201.8" rx="7.6" ry="2.7"/><ellipse cx="750.4" cy="209.2" rx="7.6" ry="2.7"/><ellipse cx="769.3" cy="213.6" rx="7.6" ry="2.7"/><ellipse cx="778" cy="205.8" rx="7.6" ry="2.7"/><ellipse cx="749.1" cy="219.3" rx="6.4" ry="2.3"/><ellipse cx="701.9" cy="206.9" rx="7.6" ry="2.7"/><ellipse cx="680.6" cy="186.4" rx="7.6" ry="2.7"/><ellipse cx="643.5" cy="197.4" rx="7.6" ry="2.7"/><ellipse cx="646.1" cy="187.2" rx="7.6" ry="2.7"/><ellipse cx="622.5" cy="187.5" rx="7.6" ry="2.7"/><ellipse cx="708.4" cy="189" rx="7.6" ry="2.7"/><ellipse cx="664.7" cy="180.9" rx="7.6" ry="2.7"/></g><path d="m667 567.9c-1.6-3.5-5.6-11.3-6.5-15s-23.5-23.4-23.5-23.4-24.4-11.3-27.2-13.2-32.8 4.7-36.5 6.6 4.7 54.4 6.5 57.2 38.5 17.8 38.5 17.8 66.5 9.4 48.7-30z" fill="#f6bca5"/><path d="m586.4 595.5c-3.3-2.6-32.1-26-30.2-51.8.6-8.4 4.7-20.3 20.8-29.6 48.3-27.8 98.3 44.7 100.4 47.9a11.5 11.5 0 1 1 -19.1 12.9c-.6-.8-37.5-65.1-66.7-48.3-8.9 5.2-14.5 18.7-14.6 20.2-.8 10.8 15.5 29.5 23.7 30.5s11.6 4.5 12.3 9.5-1.6 10.3-6 12a20.4 20.4 0 0 1 -20.6-3.3z" fill="#231815"/><ellipse cx="405.5" cy="580.1" fill="#f6bca5" rx="17.8" ry="31.9" transform="matrix(.23004974 -.97317887 .97317887 .23004974 -252.2 841.4)"/><ellipse cx="886.4" cy="584.8" fill="#f6bca5" rx="31.9" ry="17.8" transform="matrix(.96682339 -.25544576 .25544576 .96682339 -119.7 245.1)"/><path d="m600 761c-14.1 0-27.2-8.9-36.7-15.3l-2.9-2a23.1 23.1 0 0 1 -10.6-17.3c-2.5-20.5 24.6-43 29.1-47.9s7-8.3 11.7-4a11.5 11.5 0 0 1 .7 16.3c-9.6 10.6-22.2 25.2-21.3 34.6s23.4 18.2 33.3 16.4 17.3-11.9 22.9-48.8c1-6.3 3.2-12.8 9.4-11.8a11.5 11.5 0 0 1 9.7 13.2c-5.6 36.4-15.9 56.8-32.4 64a31.6 31.6 0 0 1 -12.9 2.6z" fill="#231815"/><path d="m651.1 694.6c-97.2 0-152.1-46.7-155.4-49.6a11.6 11.6 0 0 1 15.3-17.4c3 2.7 50.5 54.1 138.2 54.2 43 0 96.6-20.1 157.4-49a11.6 11.6 0 0 1 9.9 20.9c-64 30.4-119.4 40.9-165.4 40.9z" fill="#231815"/><path d="m841.3 677.4-1.8-.2c-17.9-2.8-30.1-13.5-34.6-30.1a158.2 158.2 0 0 1 -4.7-33.2 11.5 11.5 0 0 1 11.3-11.8 11.7 11.7 0 0 1 11.8 11.3c0 .2-4.7 13.7-1.1 27.1 1.4 5.3 9.5 12.1 20.9 13.9a11.6 11.6 0 0 1 -1.8 23z" fill="#231815"/><path d="m475.1 661.8a11.5 11.5 0 0 1 -4.1-22.3c9.7-3.6 19.3-4.4 23.1-9.7 6.8-9.8 2.4-24.5 2.2-26.2a11.6 11.6 0 0 1 10.2-12.7 11.3 11.3 0 0 1 12.7 9.9c1.9 15-4 46.8-40.1 60.3a11.2 11.2 0 0 1 -4 .7z" fill="#231815"/><path d="m631.6 43.4a138.2 138.2 0 0 1 56 11.8c16.4 7.3 17.2 10.3 18.6 12.5s1.6 8-2.4 10.8a8.4 8.4 0 0 1 -5 1.6 15.5 15.5 0 0 1 -3.1-.4c-6-1.3-9.2-7.3-15.7-10.9-15.4-8.6-33.6-14.6-52.4-14.6a81.3 81.3 0 0 0 -45.1 13.3c-17.7 11.6-19.5 31.9-11.3 45.7 7.3 12 21.8 16.5 38.5 16.5 24.4 0 53.3-9.6 70.4-19.2-9-.6-24.4-1.7-34.2-1.7a43.3 43.3 0 0 0 -7.6.5 50 50 0 0 1 -9.7 1.3c-4.6 0-7.5-1.4-9.1-4.8-2.9-6.1 2.5-14.9 15.7-14.9a36.3 36.3 0 0 1 7.6.9c14.7 2.2 65.9 6.3 71.1 11.2 2.7 2.6 2.2 6.9-1.6 11.6a3.7 3.7 0 0 1 -3 1.6c-2 0-4.1-1.3-6.8-1.3a8.6 8.6 0 0 0 -4.9 1.6c-7.5 5.1-30.6 20.9-42.1 37.5a78.1 78.1 0 0 0 -6.7 11.4 239.1 239.1 0 0 1 24.2-1.2 299.7 299.7 0 0 1 44.3 3.5c-.8-28.8 6.2-63.7 36.6-89.6 16.6-14.1 37.3-20.5 58.3-20.5 26.2 0 52.7 10 71.9 27.3 23.9 21.6 28.6 48.8 9.7 70.5-11.7 13.5-26.8 19.9-44.7 19.9a98.7 98.7 0 0 1 -24.4-3.4c-40.6-10.8-53.2-30.7-51.9-53.8.4-8.1 5.2-12.2 10.9-12.2a13.9 13.9 0 0 1 4 .6c4.4 1.4 7.3 6.3 7.2 10.8-.7 17.7 5.1 34.2 34.6 41 4.7 1.1 12.4 3 21.1 3 10.5 0 22.4-2.9 31.8-13.7 16.6-19.1 3.8-40-7.4-51.3-15.2-15.4-39.5-23.9-63.3-23.9-18.7 0-37 5.3-50.4 16.5-30 25.3-36.3 55.5-34.7 80.3a499.6 499.6 0 0 1 61.2 15.5c88.4 28.3 160.7 127 187.6 206.3 9.3 27.3 31.2 79.1 37.5 131 3.5 28.3 6.6 54.3 7.5 109.6a318.7 318.7 0 0 1 -3.4 53.3 115.4 115.4 0 0 1 35-5.4 122.5 122.5 0 0 1 19.9 1.7l32.6-135.3-.7.2 4.4-15.7 34.1-141.2a6.7 6.7 0 0 1 6.6-5.3l1.6.2c3.6.9 10.6 4.4 9.7 8.1l-4.9 19.3 114.8 93.8 19-4.6-116.2-91.5c-2.7-2.3 1.5-17.2 4.4-17.2a.9.9 0 0 1 .6.3l130.2 106.6a6.6 6.6 0 0 1 2.3 6.7 6.8 6.8 0 0 1 -5 5.1l-158.3 38.6h-1.6a6.7 6.7 0 0 1 -6.6-5.1 6.9 6.9 0 0 1 .9-5.3l-17.8 3.5-36.1 141.8c3.2.9 6.3 1.9 9.4 3.1 44.1 16.1 73.1 53.7 76.6 92.9a65.9 65.9 0 0 1 .1 13.3v.9c-.1.4-.1.9-.2 1.3a82.8 82.8 0 0 1 -4.9 22.1c-13.9 38-52.6 60.9-95.6 60.9-4 0-8.1-.2-12.2-.6-33.2 38.2-78.5 84.3-127.6 117.1l-6.7 4.5c0 .4.2.7.2 1.1l-11.2 212.7 29.7-3.9h1.1a6.6 6.6 0 0 1 5 2.3 6.7 6.7 0 0 1 1.5 6.2l-12.4 42.8c23.7-6.3 74.5-35.8 121.5-35.8a92.1 92.1 0 0 1 26.2 3.6c30.1 8.8 48.2 28.2 48.2 51.8.1 16.9-9.3 31.3-25.6 42.9-5.1 10.5-17.3 16.3-42.7 19.5-33.5 9.5-110.9 10.9-186.2 10.9l-84.9-.2c-39.7 0-58.4-.4-62.1-.5a6.8 6.8 0 0 1 -6.5-5.1l-25.8-91.6a6.9 6.9 0 0 1 .9-5.4 7.1 7.1 0 0 1 4.7-3l3.7-.5 12.2-1.9-1.8-15.1-8.2 1.9-7.7-21.8-37.7-7.4-4.3 39.5 17.3 4.5a7 7 0 0 1 4.4 3.1 6.6 6.6 0 0 1 .8 5.3l-32.1 92.5a6.8 6.8 0 0 1 -6.5 5h-.2c-1.4 0-44.4 1.4-99.1 1.4s-120.1-1.4-168.4-6.9c-79.6-9.2-145.1-19.4-162.2-46.5-7.7-12.3-8.4-27.6-2.1-45.5 5.5-16 16.4-27.8 32.1-35.1 8.7-4 20.2-5.6 33.2-5.6 52.9 0 131.5 27 152.4 34l-16.6-52.1a6.8 6.8 0 0 1 6.8-7.3h1.4l25.4 6.3-57.1-170.6 15.2 2.8-.2-26.6-6.1 1.6-4.7-2.6-2.4-3.8c-19-15.9-39.7-34.3-58.7-53.4-30.8-30.8-70-78.6-98-114.1-39.9-2.5-75-24.9-88.1-60.7-18.2-49.5 12.2-106.7 68-129.1l-93.8-283.3a6.8 6.8 0 0 1 4.4-8.5 38.3 38.3 0 0 1 10.4-1.8c2.6 0 4.7.5 5.2 2l2.3 7.6 16.8 1.6c-3.6-1.2-8.7-14-5.5-14h.2l168.1 18.5a6.9 6.9 0 0 1 5.4 4.6 6.8 6.8 0 0 1 -1.6 7l-114.8 115.5h-.5c-2.4 0-11.6-7.2-9.2-9.7l105.4-105.8-29.7-3.3-92.2 123.5 43.5 141.4a128.5 128.5 0 0 1 32.7-4.4 120.7 120.7 0 0 1 26.4 3l-3.1 6.4 7.7.9c-5-92.2 32-190.3 112.3-302.9q42.8-60 86.1-98.6l3.4-3c33.8-29.5 68.3-49.7 103.8-60.9a230.4 230.4 0 0 1 38.5-8.6 116.9 116.9 0 0 1 8-13.8 209.1 209.1 0 0 1 14.4-18.7c-16.7 6.2-35.8 10.9-51.6 11.5-25.4-.6-43.5-6.2-53.9-23.4s-9.1-46.8 23.5-66.6c11.8-7.1 30.5-12.1 51.9-12.1m364.1 672.8c8.2-33.2 10.4-65.3 12.2-93.6.2-2.5-1-55.7-10-108.1-8-47-23.4-92.7-30-112.2-19.5-57.6-72.9-142.6-147.3-183.2l-14.3 5.1c175.7 101.8 201.1 347.1 189.4 492m-595.2-343.1c10.4-15.3 20.7-30 30.5-44.5-4.2 5.4-8.3 11-12.5 16.8-6.5 9.1-12.4 18.4-18 27.7m-155.8 442.8a110.8 110.8 0 0 0 38.7-7 109.5 109.5 0 0 0 49.5-36 4.1 4.1 0 0 1 -.5-.9c-36.3 25.5-68.2 35.7-94.6 35.7-43.5 0-71.9-27.9-79.9-61.1a73.8 73.8 0 0 0 3.9 17.2c12 32.6 45.4 52.1 82.9 52.1m9.7 13.2c45.7-2.8 68.6-21.9 79.7-36.9a125.7 125.7 0 0 1 -46 29.5 127.5 127.5 0 0 1 -33.7 7.4zm775.9 56.1 9.2-10.6a119.5 119.5 0 0 1 -11.6-3.6c-25.6-9.4-46.2-26.1-59.6-46.1l6.3-2.3c-3.4-4.6-6.2-8.5-8.1-11.2-3.5 4.9-7.2 9.7-11.2 14.6 16.6 20.4 60.2 49.6 75 59.2m-596 333.6v-.4l216.3 51.3-18.4 69.6h9.2l28.8-80.3-24-5.9 1.4-5.9-17-3.7-1.6 6.6-199-45.4 4.4 14m474.9 72.1 101.2-36.2a212.7 212.7 0 0 1 41.8-4.5c25.9 0 54.8 6.2 58.2 33.2a198.6 198.6 0 0 1 1.8 21c5.8-7.5 8.9-15.6 8.9-23.9-.1-17.2-14.5-31.7-38.6-38.8a100.3 100.3 0 0 0 -28.1-3.7c-57.3 0-122.5 38.8-123.3 39.1a6.9 6.9 0 0 1 -2 .3 7 7 0 0 1 -4.7-1.9 6.8 6.8 0 0 1 -1.9-6.6l12.8-44.3-16.7 2.8zm-377.9 49.3 37.4-.2c-46.5-.7-110.6-1.9-163.5-3.6 39 3 84.9 3.8 126.1 3.8m100.2-1326.1c-25.6 0-50 6-67.2 16.4-27 16.5-37.1 37.8-40.8 52.7-4.7 18.8-1.9 38.5 7.4 54.1a70.3 70.3 0 0 0 24.3 24.5c-26.4 12.7-52.4 30.1-77.5 52l-3.9 3.5c-30.4 27-60.8 61.8-90.4 103.3q-13.2 18.5-24.9 36.6c0-.2 0-.3-.1-.4a35.8 35.8 0 0 0 -29.2-24.3h-.9l-167.4-18.6-4.1-.3c-4.9 0-26.1-2.2-37.6 3.6-9.1 2.9-17.4 11.8-21.8 20.4a35.8 35.8 0 0 0 -2.1 27.6l85.9 259.6c-54.7 34.1-80.6 97.2-59.8 153.9 15.4 42 53.2 71.2 100.3 78.5 27.4 34.4 63.4 77.8 92.7 107 11.4 11.4 24.1 23.4 38.1 35.8l11.6 34.8 43.1 128.7a39 39 0 0 0 -8.8 5.7 36.7 36.7 0 0 0 -12.2 30l.3 3.4.5 1.5c-33.2-9.3-74.2-18.5-107.3-18.5-18.5 0-33.3 2.7-45.5 8.4-22.9 10.6-39.4 28.5-47.6 52-11.6 33.3-3.7 56.9 5 70.8 24.4 38.9 91.6 49.4 183.8 60.1 41.2 4.7 98.9 7.1 171.7 7.1 31.5 0 64.1-.4 97-1.3h2.4a36.2 36.2 0 0 0 34.4-25.4l9.7-28.1 7.6 26.8a36.2 36.2 0 0 0 34.4 26.7h1.6c6.2.1 25.2.4 60.9.4h84.9c48.3 0 130.2 2 189-8.7 35.3-6.4 61.9-24.1 69-30.4 18.9-16.9 26-46.4 25.9-63.6-.1-36.7-26.6-67.4-69.3-79.9a120.4 120.4 0 0 0 -34.5-4.8c-28 0-55.8 8.4-79.6 17.4a36.1 36.1 0 0 0 -35.6-32.9l8.6-164.4c38.2-26.4 77.9-62.5 118.2-107.6 56.8-.2 104.9-31.6 122.7-80.2a111.5 111.5 0 0 0 6.6-29.2c0-.5.1-.9.1-1.4v-1.3a89.9 89.9 0 0 0 -.2-18.7c-4.3-46.7-35.1-88.8-80.3-111 0 0 23.9-87.5 24.7-87.5a34.7 34.7 0 0 0 8.5-1l158.4-38.6a36.1 36.1 0 0 0 14.5-63l-130.3-106.7c-5.3-4.4-26.6-17.6-46.6-15.9-16.7 1.4-32.3 12.4-36.2 28.7l-33.9 140.6-4.3 15.1s-25.6 98.7-25.7 93.1c-1-57-4.2-84.1-7.7-112.7-5.5-45.2-21.7-89.7-32.5-119.1-2.5-6.9-4.7-12.8-6.3-17.7-15.2-44.9-43-92.9-76.2-131.9a363.6 363.6 0 0 0 -50.5-49.1 85.1 85.1 0 0 0 39.4-25.9c29.2-33.7 24.4-78.5-12.2-111.6-24.5-22.2-57.9-34.9-91.6-34.9-29.4 0-56.2 9.5-77.3 27.5l-1.3 1.1a36.2 36.2 0 0 0 -2.5-4.8c-6-9.8-14.2-16-31.5-23.7a169.9 169.9 0 0 0 -68-14.3z" fill="#fff"/><path d="m522.4 979a6.6 6.6 0 0 0 4.9 1.6c79.2-7.1 165.8-5.6 257.3 4.4a6.6 6.6 0 0 0 5.2-1.7 6.9 6.9 0 0 0 2.3-5l6.4-54.9c-4.5 1.5-14.7 2.7-19.2 4l-.6 43.4c-87-9.1-169.6-10.5-245.7-4.3l-1.7-32.2c-4.7-1.6-12.8-4.2-17.4-5.9l6.1 45.9a6.8 6.8 0 0 0 2.4 4.7z" fill="#231815"/><path d="m408.1 999.2c18.7-4.4 38.5-8.2 58.8-11.3a7 7 0 0 0 4.5-2.8 7.3 7.3 0 0 0 1.1-5.2l-10.2-94.4c-5.3-3-18.9-8.5-24-11.7l19.6 101.8c-18 2.9-36 8-52.7 11.8-19.1-16-39.7-36.3-59.1-55.6-29.8-29.8-67.5-75.8-95.1-110.6a104 104 0 0 1 -17.7-.7c28.1 35.8 70.4 88 103.3 120.8 18.9 18.9 39.5 37.2 58.3 53.1l2.4 3.8 4.7 2.5zm301.2 244.5-3.7.5a7.1 7.1 0 0 0 -4.7 3 7.3 7.3 0 0 0 -.9 5.4l25.7 91.1a6.8 6.8 0 0 0 6.5 5c3.6.1 22.2.5 61.7.5 93.1 0 225.4 2.6 270.8-11 40.6-12.2 66.7-33.5 66.7-61.7-.1-23.4-18-42.7-48-51.5-52.6-15.5-118.8 24.6-146.9 32l12.4-42.5a6.7 6.7 0 0 0 -1.5-6.2 6.9 6.9 0 0 0 -6.1-2.2l-29.5 3.9 11.1-211.4a5 5 0 0 0 -.2-1.2l6.7-4.4c51.5-34.4 98.9-83.7 132.4-122.8-5.3-.3-15.4-1-20.8-2.1-32.4 37.2-67.9 82-115.4 113.7l-12.6 8.3c-10-2-32-5.5-56.6-9.3l12.3-76.3-12.5 7.5c-.9.5-9.6 3.5-10.5 4l-3.8 69.3a6.7 6.7 0 0 0 5.7 7.8c30.3 4.6 52.2 8.9 61.7 10.8l-6.3 208.2-180.4 29.6m-90.7-8.4-168.7-38.2-52-169-18.1-3.2 56.7 169.5-25.2-6.2a6.9 6.9 0 0 0 -8.1 7.2l16.5 51.7c-26-8.6-141.1-48.3-184.5-28.2-15.7 7.3-26.5 19-32 34.9-6.2 17.7-5.5 33 2.2 45.2 16.9 27 82.1 37.1 161.2 46.2 96.7 11.2 264.2 5.5 265.9 5.5h.2a6.6 6.6 0 0 0 6.5-5l31.9-91.9a6.6 6.6 0 0 0 -.8-5.3 6.5 6.5 0 0 0 -4.4-3l-17.1-4.6 4.3-39.2 37.4 7.4 7.7 21.6 8.9-2.1-4-26.1a6.7 6.7 0 0 0 -5.2-5.6l-48.7-9.9a6.4 6.4 0 0 0 -5.2 1 6.5 6.5 0 0 0 -2.9 4.3l-5.6 45.9-3.2 13.2 23.9 5.8-28.7 79.9c-29.8-.7-172.8 4.7-259.3-5.3-58.5-6.7-136-15.4-151.4-40-5.4-8.7-5.7-19.7-.9-33.6s12.5-21.3 24.9-27 24.8-7.2 39.5-5.6c49.1 5.1 143.8 37.4 144.5 37.7a6.7 6.7 0 0 0 9.1-6.9l-16.5-53.2 197.8 45.2m432.3 83.6c-58 17.4-283.3 5.8-323.3 5.3l-22.5-78.8 218.2-35.5-12.7 44a7 7 0 0 0 1.8 6.6 6.6 6.6 0 0 0 6.7 1.5c1-.3 89.5-53.1 150.6-35.1 23.9 7 38.2 21.4 38.2 38.6.1 22-22.3 43-57 53.4z" fill="#231815"/><path d="m759.9 1106.2 2.3-82.2a6.2 6.2 0 0 1 2.6-4.8 9.3 9.3 0 0 1 5.9-1.9 9.9 9.9 0 0 1 6.1 2.2 5.9 5.9 0 0 1 2.4 5l-.9 32.8 46.2-36.5a9.6 9.6 0 0 1 6-1.8c3.7.1 6.3 1.6 7.8 4.4s1 5.2-1.6 7.2l-42.7 33.7s19.6 8.7 23.2 12.8 13.1 25.3 13.1 25.3c2.2 1.8 2.6 5.7 1 8.4s-4.2 4.2-7.9 4.1a9.3 9.3 0 0 1 -6-2.3s-7.2-20.6-12.7-25.7-26.8-14.8-26.8-14.8l-1 34.6a6 6 0 0 1 -2.7 4.7 9.9 9.9 0 0 1 -6.2 1.9 9 9 0 0 1 -5.8-2.2 5.9 5.9 0 0 1 -2.3-4.9z" fill="#231815"/><path d="m679.1 1015.3 10 .3c16.7 1 31.4 6.8 35.6 10.4s19.8 20.7 19.3 39.1c-.3 12.9-4.8 22.3-14 30.6s-25.8 13.3-43.5 12.8l-10.2-.2s-3.8-1.6-3.7-4l2.4-84.9c.1-3.6 4.1-4.1 4.1-4.1zm11.3 78.2c10.7-.2 20.1-1.6 26.7-7.4s10.9-13.1 11.1-22.3-8.8-21.9-12.9-25.2-14.9-6.5-24.4-7.4z" fill="#231815"/><path d="m509.4 1079c-.1 4.6.8 8 2.8 10.2s5 3.3 9.3 3.4 7.6-.8 9.7-2.8 3.1-5.4 3.2-10.1l1.8-62.4a5.9 5.9 0 0 1 2.6-4.9 9.6 9.6 0 0 1 12 .4 5.9 5.9 0 0 1 2.4 4.9l-1.8 62.5c-.2 9.4-2.8 16.1-7.7 20.3s-12.4 6.1-22.5 5.9c-19.8-.6-29.5-9.9-29-27.9a6.1 6.1 0 0 1 2.8-4.7 9.4 9.4 0 0 1 6.1-1.9 9.1 9.1 0 0 1 5.9 2.3 5.7 5.7 0 0 1 2.4 4.8z" fill="#231815"/><path d="m622.6 1103.8-8.8-26.4-10.2 25.9c-1.4 3.3-4.3 4.9-8.5 4.8l-4.4-.2a9 9 0 0 1 -5.1-1.5 6.6 6.6 0 0 1 -2.8-3.7c-2.6-9.4-4.7-23.2-6.4-41.4s-2.5-32.4-2.2-42.9a6.6 6.6 0 0 1 2.7-4.8 10 10 0 0 1 6-1.9 9.4 9.4 0 0 1 6 2.2 6.5 6.5 0 0 1 2.4 5c-.2 7.1.1 17.4.8 30.8s1.8 23.5 3 30.2l10.5-26.1a7.1 7.1 0 0 1 3.2-3.5 9.6 9.6 0 0 1 5-1.3h1.6a9 9 0 0 1 5 1.6 7.3 7.3 0 0 1 3 3.6l9 26.6a291.6 291.6 0 0 0 4.6-29.8c1.6-13.4 2.4-23.6 2.6-30.7a6.2 6.2 0 0 1 2.6-4.9 10 10 0 0 1 12 .4 5.9 5.9 0 0 1 2.4 4.9c-.2 10.5-1.8 24.7-4.5 42.8s-5.6 31.7-8.7 40.9a6.7 6.7 0 0 1 -3 3.5 9.4 9.4 0 0 1 -5.2 1.3h-4.5c-4.2-.2-6.9-2-8.1-5.4z" fill="#231815"/></svg>